<svg width="500" height="500" viewBox="0 0 500 500" fill="none" xmlns="http://www.w3.org/2000/svg">
<path d="M41.06 263.18C41.06 263.18 43.4 335.85 104.06 384.29C164.72 432.73 248.8 436.2 316.86 440.81C384.92 445.42 437.19 406.88 445.06 348.64C452.93 290.4 401 273.31 372.73 207C344.46 140.69 347 118.92 287.33 78.1501C227.66 37.3801 134.23 62.4101 85.27 132.27C36.31 202.13 41.06 263.18 41.06 263.18Z" fill="#5048E5"/>
<path opacity="0.7" d="M41.06 263.18C41.06 263.18 43.4 335.85 104.06 384.29C164.72 432.73 248.8 436.2 316.86 440.81C384.92 445.42 437.19 406.88 445.06 348.64C452.93 290.4 401 273.31 372.73 207C344.46 140.69 347 118.92 287.33 78.1501C227.66 37.3801 134.23 62.4101 85.27 132.27C36.31 202.13 41.06 263.18 41.06 263.18Z" fill="white"/>
<path d="M68.67 380.53H59.49" stroke="#263238" stroke-width="1.1133" stroke-miterlimit="10"/>
<path d="M440.51 380.53H83.19" stroke="#263238" stroke-width="1.1133" stroke-miterlimit="10"/>
<path d="M306.07 418.91C322.854 418.91 336.46 415.167 336.46 410.55C336.46 405.933 322.854 402.19 306.07 402.19C289.286 402.19 275.68 405.933 275.68 410.55C275.68 415.167 289.286 418.91 306.07 418.91Z" fill="#263238"/>
<path d="M149 429.54C117.37 429.54 112.7 424.97 112.24 421.28C112.136 420.512 112.211 419.729 112.461 418.995C112.711 418.261 113.128 417.595 113.68 417.05C122.2 408.11 171.3 411.89 239.24 417.12C248.72 417.85 258.52 418.6 268.57 419.35C337.22 424.45 364.86 423.79 370.57 416.89C371.73 415.48 371.97 413.72 371.33 411.34C368.61 401.39 332.25 401.34 318.48 402.12C318.165 402.136 317.856 402.028 317.62 401.819C317.384 401.609 317.241 401.315 317.22 401C317.211 400.844 317.232 400.688 317.283 400.541C317.335 400.393 317.415 400.257 317.519 400.141C317.623 400.025 317.749 399.93 317.89 399.863C318.031 399.796 318.184 399.758 318.34 399.75C323.61 399.44 369.91 397.11 373.62 410.75C374.47 413.89 374.08 416.4 372.4 418.44C365.99 426.22 339.75 427.05 268.4 421.75C258.34 421 248.54 420.25 239.06 419.52C174.3 414.52 123.14 410.59 115.4 418.72C115.094 419.01 114.862 419.37 114.723 419.768C114.583 420.166 114.541 420.592 114.6 421.01C114.89 423.37 120.6 428.65 166.6 426.81C192.33 425.81 218.18 422.98 218.44 422.95C218.741 422.938 219.036 423.04 219.264 423.237C219.493 423.433 219.638 423.709 219.671 424.009C219.704 424.308 219.622 424.609 219.442 424.851C219.262 425.092 218.997 425.256 218.7 425.31C218.44 425.31 192.51 428.15 166.7 429.18C160.06 429.42 154.18 429.54 149 429.54Z" fill="white" stroke="#263238" stroke-width="1.1133" stroke-miterlimit="10"/>
<path d="M294.77 417.89C314.547 417.89 330.58 401.857 330.58 382.08C330.58 362.303 314.547 346.27 294.77 346.27C274.993 346.27 258.96 362.303 258.96 382.08C258.96 401.857 274.993 417.89 294.77 417.89Z" fill="white"/>
<path d="M294.77 417.89C301.287 417.894 307.681 416.12 313.264 412.758C318.846 409.395 323.405 404.573 326.449 398.811C329.492 393.049 330.905 386.565 330.536 380.059C330.166 373.552 328.027 367.27 324.35 361.89C323.96 377.49 315.35 400.52 270.57 408.44C277.162 414.52 285.802 417.894 294.77 417.89V417.89Z" fill="#5048E5"/>
<path opacity="0.3" d="M294.77 417.89C301.287 417.894 307.681 416.12 313.264 412.758C318.846 409.395 323.405 404.573 326.449 398.811C329.492 393.049 330.905 386.565 330.536 380.059C330.166 373.552 328.027 367.27 324.35 361.89C323.96 377.49 315.35 400.52 270.57 408.44C277.162 414.52 285.802 417.894 294.77 417.89V417.89Z" fill="white"/>
<path d="M312.39 396.12C306.004 389.908 298.25 385.28 289.75 382.61C298.25 385.28 306.004 389.908 312.39 396.12H314.29C318.505 391.942 322.134 387.212 325.08 382.06C308.31 364.34 292 366.15 292 366.15C292 366.15 308.36 364.34 325.13 382.08C326.05 380.43 326.82 378.88 327.45 377.45C320.47 367.67 308.45 361 302 360L300.5 359.64C298.188 359.22 295.823 359.186 293.5 359.54C295.823 359.186 298.188 359.22 300.5 359.64L304.77 347.64C302.752 347.063 300.688 346.665 298.6 346.45C295.83 350.92 288.7 365.2 288.7 393.53C288.7 365.2 295.83 350.92 298.6 346.45C297.4 346.34 296.2 346.27 294.97 346.27C293.617 346.274 292.264 346.354 290.92 346.51C286.7 352.89 278.63 367.96 278.09 390.58C286.46 393.63 297.66 395.91 312.39 396.12ZM320.48 388.83C306.22 374.93 290.48 374.2 290.48 374.2C290.48 374.2 306.22 374.93 320.48 388.83V388.83Z" stroke="#263238" stroke-width="1.1133" stroke-linecap="round" stroke-linejoin="round"/>
<path d="M278.05 390.64C278.59 368.02 286.66 352.95 290.88 346.57C287.578 346.94 284.344 347.768 281.27 349.03C273.691 360.148 269.41 373.183 268.92 386.63C271.857 388.198 274.909 389.538 278.05 390.64Z" stroke="#263238" stroke-width="1.1133" stroke-linecap="round" stroke-linejoin="round"/>
<path d="M281.27 349C275.086 351.55 269.738 355.777 265.829 361.205C261.92 366.634 259.607 373.047 259.15 379.72C262.094 382.427 265.379 384.74 268.92 386.6C269.41 373.153 273.691 360.119 281.27 349V349Z" stroke="#263238" stroke-width="1.1133" stroke-linecap="round" stroke-linejoin="round"/>
<path d="M327.4 377.45C328.179 375.728 328.847 373.958 329.4 372.15C327.905 367.05 325.299 362.344 321.77 358.37L319 367.61L321.72 358.37C319.511 355.892 316.971 353.732 314.17 351.95L311.12 363.36L314.19 352C311.262 350.127 308.075 348.695 304.73 347.75L300.46 359.75C307 360.69 317.11 364.54 327.4 377.45Z" stroke="#263238" stroke-width="1.1133" stroke-linecap="round" stroke-linejoin="round"/>
<path d="M330.77 383.77C330.77 383.25 330.77 382.77 330.77 382.21C330.77 378.805 330.285 375.418 329.33 372.15C328.777 373.958 328.109 375.728 327.33 377.45C326.901 378.507 326.393 379.53 325.81 380.51C325.87 380.57 324.95 382.02 325.01 382.08C325.07 382.14 324.01 383.88 324.01 383.82C321.63 388.05 314.45 396.15 314.57 396.15C314.45 396.15 310.69 399.56 308.64 401.28C304.89 404.386 300.916 407.21 296.75 409.73H297.01H296.75C292.653 412.206 288.416 414.443 284.06 416.43C287.558 417.531 291.203 418.09 294.87 418.09C295.48 418.09 296.08 418.09 296.67 418.09C304 414.1 315.65 405 330.77 383.77Z" stroke="#263238" stroke-width="1.1133" stroke-linecap="round" stroke-linejoin="round"/>
<path d="M330.77 383.77C315.65 405 304 414.1 296.73 418C305.645 417.551 314.073 413.795 320.367 407.466C326.662 401.136 330.371 392.688 330.77 383.77V383.77Z" stroke="#263238" stroke-width="1.1133" stroke-linecap="round" stroke-linejoin="round"/>
<path d="M266.89 404.57C271.327 410.148 277.326 414.277 284.12 416.43C288.476 414.443 292.713 412.206 296.81 409.73C288.27 411.31 274.91 407.39 266.89 404.57Z" stroke="#263238" stroke-width="1.1133" stroke-linecap="round" stroke-linejoin="round"/>
<path d="M296.81 409.73C300.976 407.21 304.95 404.386 308.7 401.28C282.91 403.92 267 395.93 260.24 391.39C261.516 396.198 263.781 400.687 266.89 404.57C274.91 407.39 288.27 411.31 296.81 409.73Z" stroke="#263238" stroke-width="1.1133" stroke-linecap="round" stroke-linejoin="round"/>
<path d="M308.7 401.28C310.75 399.56 312.6 397.84 314.29 396.14H312.39C312.53 396.27 312.67 396.4 312.8 396.54C312.67 396.4 312.53 396.27 312.39 396.14C297.66 395.93 286.46 393.65 278.05 390.66C265.76 386.4 261.33 381.82 259.15 379.77C259.09 380.59 259.05 381.4 259.05 382.23C259.051 385.328 259.451 388.414 260.24 391.41C267 395.93 282.91 403.92 308.7 401.28Z" stroke="#263238" stroke-width="1.1133" stroke-linecap="round" stroke-linejoin="round"/>
<path d="M294.77 417.89C314.547 417.89 330.58 401.857 330.58 382.08C330.58 362.303 314.547 346.27 294.77 346.27C274.993 346.27 258.96 362.303 258.96 382.08C258.96 401.857 274.993 417.89 294.77 417.89Z" stroke="#263238" stroke-width="1.1133" stroke-linecap="round" stroke-linejoin="round"/>
<path d="M360.73 320.88C360.73 320.88 358.28 312.93 351.14 310.07C346.14 308.07 340.47 308.61 335.32 309.5C325.74 311.17 317.38 314.98 308.32 318.23C308.32 318.23 312.2 316.8 328.11 324.56C333.97 327.41 340.67 329.63 347.37 329.48C352.74 329.36 361 327.82 360.73 320.88Z" fill="#5048E5"/>
<path d="M361.59 297.51C361.59 297.51 361.59 289.18 355.59 284.39C351.41 281.05 345.79 279.9 340.59 279.27C330.93 278.1 321.83 279.33 312.19 279.82C312.19 279.82 316.32 279.58 329.31 291.6C334.1 296.02 339.88 300.08 346.31 301.87C351.49 303.31 359.83 304.23 361.59 297.51Z" fill="#5048E5"/>
<path d="M378 328.42C378 328.42 371.51 323.21 371.49 315.52C371.49 310.17 374.06 305.06 376.79 300.61C381.87 292.31 388.49 285.95 394.87 278.7C394.87 278.7 392.11 281.78 393.45 299.43C393.95 305.93 393.53 312.98 390.92 319.15C388.87 324.11 384.4 331.22 378 328.42Z" fill="#5048E5"/>
<path d="M401 341.2C401 341.2 400.08 332.93 405.5 327.47C409.26 323.68 414.71 321.88 419.78 320.66C429.24 318.38 438.42 318.55 448.05 317.92C448.05 317.92 443.93 318.15 432.41 331.59C428.17 336.59 422.9 341.24 416.69 343.77C411.74 345.8 403.56 347.67 401 341.2Z" fill="#5048E5"/>
<path d="M399.53 311.71C399.53 311.71 391.28 310.58 387.32 303.99C384.56 299.41 384.15 293.69 384.2 288.47C384.3 278.75 386.72 269.88 388.47 260.39C388.47 260.39 387.68 264.45 397.9 278.9C401.66 284.23 404.9 290.49 405.9 297.13C406.61 302.46 406.42 310.85 399.53 311.71Z" fill="#5048E5"/>
<path d="M423.27 296.9C423.27 296.9 429.2 302.74 436.84 301.9C442.15 301.29 446.93 298.12 451.03 294.9C458.67 288.9 464.22 281.56 470.67 274.39C470.67 274.39 467.94 277.48 450.25 278.21C443.74 278.48 436.79 279.71 430.96 283.03C426.28 285.65 419.75 290.92 423.27 296.9Z" fill="#5048E5"/>
<path d="M416.4 291.13C416.4 291.13 424.68 291.96 430.08 286.49C433.84 282.68 435.58 277.22 436.75 272.13C438.93 262.66 438.67 253.47 439.19 243.84C439.19 243.84 439.01 247.96 425.68 259.62C420.78 263.91 416.13 269.23 413.68 275.46C411.69 280.47 409.9 288.67 416.4 291.13Z" fill="#5048E5"/>
<path d="M386.83 371.74L372.53 336.55L356.04 295.86" stroke="#263238" stroke-width="1.1133" stroke-linecap="round" stroke-linejoin="round"/>
<path d="M390.13 365.69L404.42 316.76L419.82 286.52" stroke="#263238" stroke-width="1.1133" stroke-linecap="round" stroke-linejoin="round"/>
<path d="M395.62 346.45L409.92 338.2" stroke="#263238" stroke-width="1.1133" stroke-linecap="round" stroke-linejoin="round"/>
<path d="M404.42 316.76L397.27 300.81" stroke="#263238" stroke-width="1.1133" stroke-linecap="round" stroke-linejoin="round"/>
<path d="M413.37 300.89L430.81 293.11" stroke="#263238" stroke-width="1.1133" stroke-linecap="round" stroke-linejoin="round"/>
<path d="M375.28 343.15L381.33 318.96" stroke="#263238" stroke-width="1.1133" stroke-linecap="round" stroke-linejoin="round"/>
<path d="M367.26 324.76L353.29 317.31" stroke="#263238" stroke-width="1.1133" stroke-linecap="round" stroke-linejoin="round"/>
<path d="M394.16 389.33H382.24C380.291 389.329 378.404 388.649 376.904 387.405C375.403 386.162 374.383 384.434 374.02 382.52L369.78 360.19H406.62L402.39 382.52C402.025 384.435 401.003 386.163 399.501 387.406C397.999 388.649 396.11 389.33 394.16 389.33V389.33Z" fill="#263238" stroke="#263238" stroke-width="1.1133" stroke-linecap="round" stroke-linejoin="round"/>
<path d="M231.15 342.28C208.89 342.28 195.51 322.53 190.76 305.16L190.6 304.55C190.347 303.708 190.266 302.823 190.363 301.949C190.46 301.075 190.732 300.229 191.163 299.463C191.594 298.696 192.175 298.024 192.872 297.488C193.568 296.951 194.366 296.56 195.217 296.339C196.068 296.117 196.955 296.07 197.825 296.199C198.695 296.329 199.53 296.632 200.28 297.092C201.03 297.551 201.679 298.157 202.19 298.873C202.7 299.59 203.061 300.401 203.25 301.26L203.37 301.71C206.98 314.93 216.81 330.04 232.58 329.17C235.545 329.067 238.456 328.342 241.123 327.041C243.79 325.741 246.153 323.894 248.06 321.62C256.71 311.7 260.58 290.13 259.72 279.25C259.639 278.552 259.699 277.845 259.897 277.17C260.095 276.496 260.427 275.868 260.873 275.325C261.319 274.782 261.87 274.334 262.494 274.009C263.117 273.683 263.799 273.487 264.5 273.431C265.2 273.375 265.905 273.461 266.572 273.684C267.238 273.907 267.853 274.261 268.38 274.727C268.906 275.193 269.334 275.76 269.636 276.394C269.938 277.029 270.11 277.718 270.14 278.42C271.14 290.53 269.82 316.56 257.91 330.21C254.862 333.799 251.103 336.719 246.871 338.784C242.639 340.849 238.025 342.016 233.32 342.21C232.59 342.26 231.86 342.28 231.15 342.28Z" fill="white"/>
<path d="M264.51 273.62C263.129 273.732 261.848 274.388 260.95 275.444C260.052 276.5 259.609 277.869 259.72 279.25C260.14 284.56 259.43 292.41 257.59 300.25C260.218 300.139 262.846 300.477 265.36 301.25C264.765 308.774 262.123 315.991 257.72 322.12C248.01 335.61 233.45 339.92 222.12 338.3C217.05 337.58 211.24 334.92 206.35 332.19C212.985 338.661 221.882 342.288 231.15 342.3C231.86 342.3 232.59 342.3 233.32 342.24C238.025 342.046 242.639 340.879 246.871 338.814C251.103 336.749 254.862 333.829 257.91 330.24C269.82 316.59 271.1 290.56 270.14 278.45C270.091 277.762 269.906 277.091 269.595 276.475C269.285 275.859 268.856 275.31 268.332 274.861C267.809 274.412 267.201 274.071 266.545 273.858C265.889 273.645 265.197 273.564 264.51 273.62V273.62Z" fill="#5048E5"/>
<path opacity="0.5" d="M264.51 273.62C263.129 273.732 261.848 274.388 260.95 275.444C260.052 276.5 259.609 277.869 259.72 279.25C260.14 284.56 259.43 292.41 257.59 300.25C260.218 300.139 262.846 300.477 265.36 301.25C264.765 308.774 262.123 315.991 257.72 322.12C248.01 335.61 233.45 339.92 222.12 338.3C217.05 337.58 211.24 334.92 206.35 332.19C212.985 338.661 221.882 342.288 231.15 342.3C231.86 342.3 232.59 342.3 233.32 342.24C238.025 342.046 242.639 340.879 246.871 338.814C251.103 336.749 254.862 333.829 257.91 330.24C269.82 316.59 271.1 290.56 270.14 278.45C270.091 277.762 269.906 277.091 269.595 276.475C269.285 275.859 268.856 275.31 268.332 274.861C267.809 274.412 267.201 274.071 266.545 273.858C265.889 273.645 265.197 273.564 264.51 273.62V273.62Z" fill="white"/>
<path d="M231.15 342.28C208.89 342.28 195.51 322.53 190.76 305.16L190.6 304.55C190.347 303.708 190.266 302.823 190.363 301.949C190.46 301.075 190.732 300.229 191.163 299.463C191.594 298.696 192.175 298.024 192.872 297.488C193.568 296.951 194.366 296.56 195.217 296.339C196.068 296.117 196.955 296.07 197.825 296.199C198.695 296.329 199.53 296.632 200.28 297.092C201.03 297.551 201.679 298.157 202.19 298.873C202.7 299.59 203.061 300.401 203.25 301.26L203.37 301.71C206.98 314.93 216.81 330.04 232.58 329.17C235.545 329.067 238.456 328.342 241.123 327.041C243.79 325.741 246.153 323.894 248.06 321.62C256.71 311.7 260.58 290.13 259.72 279.25C259.639 278.552 259.699 277.845 259.897 277.17C260.095 276.496 260.427 275.868 260.873 275.325C261.319 274.782 261.87 274.334 262.494 274.009C263.117 273.683 263.799 273.487 264.5 273.431C265.2 273.375 265.905 273.461 266.572 273.684C267.238 273.907 267.853 274.261 268.38 274.727C268.906 275.193 269.334 275.76 269.636 276.394C269.938 277.029 270.11 277.718 270.14 278.42C271.14 290.53 269.82 316.56 257.91 330.21C254.862 333.799 251.103 336.719 246.871 338.784C242.639 340.849 238.025 342.016 233.32 342.21C232.59 342.26 231.86 342.28 231.15 342.28Z" stroke="#263238" stroke-width="1.1133" stroke-linecap="round" stroke-linejoin="round"/>
<path d="M218.31 328.75C218.84 326.3 212.98 330.13 208.07 333.7C209.886 335.235 211.841 336.597 213.91 337.77C215.66 334.92 217.8 331.11 218.31 328.75Z" fill="#5048E5" stroke="#263238" stroke-width="1.1133" stroke-linecap="round" stroke-linejoin="round"/>
<path d="M231.15 342.28C231.86 342.28 232.59 342.28 233.32 342.22C235.445 342.101 237.555 341.803 239.63 341.33C236.87 337.73 233.07 332.97 231.98 332.61C230.73 332.19 228.32 338.32 226.98 342.04C228.364 342.201 229.756 342.281 231.15 342.28V342.28Z" fill="#5048E5" stroke="#263238" stroke-width="1.1133" stroke-linecap="round" stroke-linejoin="round"/>
<path d="M203.37 301.71L203.25 301.26C203.061 300.401 202.7 299.589 202.19 298.873C201.679 298.157 201.03 297.551 200.28 297.091C199.53 296.632 198.695 296.328 197.825 296.199C196.955 296.07 196.068 296.117 195.217 296.338C194.366 296.56 193.568 296.951 192.872 297.487C192.175 298.024 191.594 298.696 191.163 299.463C190.732 300.229 190.46 301.075 190.363 301.949C190.266 302.823 190.347 303.708 190.6 304.55L190.76 305.16C192.427 311.26 194.989 317.08 198.36 322.43L210.27 316.76C207.147 312.163 204.815 307.076 203.37 301.71Z" fill="#5048E5" stroke="#263238" stroke-width="1.1133" stroke-linecap="round" stroke-linejoin="round"/>
<path d="M257.91 330.21C258.825 329.151 259.673 328.035 260.45 326.87C256.67 325.58 251.01 323.8 248.91 323.99C246.42 324.22 249.8 332.22 251.54 335.99C253.882 334.319 256.02 332.379 257.91 330.21V330.21Z" fill="#5048E5" stroke="#263238" stroke-width="1.1133" stroke-linecap="round" stroke-linejoin="round"/>
<path d="M258.12 308.84C257.72 309.64 262.61 313.2 265.91 315.49C266.957 312.375 267.799 309.195 268.43 305.97C264.43 306.77 258.51 308.06 258.12 308.84Z" fill="#5048E5" stroke="#263238" stroke-width="1.1133" stroke-linecap="round" stroke-linejoin="round"/>
<path d="M270.05 294.05C270.27 291.2 270.38 288.48 270.39 285.98C266.95 287.87 262.87 290.49 262.87 292.21C262.87 293.93 266.69 294.14 270.05 294.05Z" fill="#5048E5" stroke="#263238" stroke-width="1.1133" stroke-linecap="round" stroke-linejoin="round"/>
<path d="M216.21 216.68C216.21 216.68 206.5 244.8 211.73 266.68C213.279 273.083 216.286 279.041 220.517 284.091C224.748 289.14 230.087 293.144 236.12 295.79C236.12 295.79 221.93 300.79 225.12 308.48C228.31 316.17 240.54 311.22 244.53 308.73C248.52 306.24 253.53 298.78 254.23 293.8C254.675 291.256 254.842 288.671 254.73 286.09C254.73 286.09 270.9 284.35 281.85 275.39C281.85 275.39 291.56 283.1 298.53 281.61C305.5 280.12 315.45 267.67 314.45 256.48C313.45 245.29 307 245.3 303.06 247C301.015 247.774 299.15 248.958 297.58 250.48C297.58 250.48 303.3 243.48 297.58 233.81C295.892 230.974 293.58 228.559 290.82 226.748C288.06 224.938 284.924 223.779 281.65 223.36C281.65 223.36 278.65 207.43 269.71 201.46C260.77 195.49 228.9 189.31 216.21 216.68Z" fill="white"/>
<path d="M290.14 226.35C285.524 234.05 279.135 240.538 271.507 245.272C263.878 250.007 255.23 252.851 246.28 253.57C226.48 255.31 215.38 251.41 210.28 248.7C210.899 237.82 212.915 227.065 216.28 216.7C228.97 189.33 260.82 195.55 269.78 201.52C278.74 207.49 281.72 223.42 281.72 223.42C284.701 223.794 287.57 224.792 290.14 226.35ZM303.06 247C301.015 247.773 299.15 248.958 297.58 250.48C298.791 248.81 299.59 246.877 299.91 244.84C286.46 251.54 287.51 265.84 285.84 265.84C283.78 265.84 282.76 258.65 282.76 258.65C282.76 258.65 280.19 268.92 264.76 276.12C249.33 283.32 231.88 277.66 231.88 277.66C231.88 277.66 235.48 285.88 226.23 284.85C223.634 284.602 221.145 283.693 219 282.21C223.436 288.124 229.327 292.788 236.1 295.75C236.1 295.75 221.91 300.75 225.1 308.44C228.29 316.13 240.53 311.18 244.51 308.69C248.49 306.2 253.51 298.74 254.21 293.76C254.655 291.215 254.822 288.63 254.71 286.05C254.71 286.05 270.88 284.31 281.83 275.35C281.83 275.35 291.54 283.06 298.51 281.57C305.48 280.08 315.43 267.63 314.43 256.44C313.43 245.25 307 245.3 303.06 247Z" fill="#5048E5"/>
<path opacity="0.5" d="M290.14 226.35C285.524 234.05 279.135 240.538 271.507 245.272C263.878 250.007 255.23 252.851 246.28 253.57C226.48 255.31 215.38 251.41 210.28 248.7C210.899 237.82 212.915 227.065 216.28 216.7C228.97 189.33 260.82 195.55 269.78 201.52C278.74 207.49 281.72 223.42 281.72 223.42C284.701 223.794 287.57 224.792 290.14 226.35ZM303.06 247C301.015 247.773 299.15 248.958 297.58 250.48C298.791 248.81 299.59 246.877 299.91 244.84C286.46 251.54 287.51 265.84 285.84 265.84C283.78 265.84 282.76 258.65 282.76 258.65C282.76 258.65 280.19 268.92 264.76 276.12C249.33 283.32 231.88 277.66 231.88 277.66C231.88 277.66 235.48 285.88 226.23 284.85C223.634 284.602 221.145 283.693 219 282.21C223.436 288.124 229.327 292.788 236.1 295.75C236.1 295.75 221.91 300.75 225.1 308.44C228.29 316.13 240.53 311.18 244.51 308.69C248.49 306.2 253.51 298.74 254.21 293.76C254.655 291.215 254.822 288.63 254.71 286.05C254.71 286.05 270.88 284.31 281.83 275.35C281.83 275.35 291.54 283.06 298.51 281.57C305.48 280.08 315.43 267.63 314.43 256.44C313.43 245.25 307 245.3 303.06 247Z" fill="white"/>
<path d="M254.78 286.11C249.413 286.253 244.085 285.163 239.205 282.925C234.325 280.687 230.023 277.36 226.63 273.2" stroke="#263238" stroke-width="1.1133" stroke-linecap="round" stroke-linejoin="round"/>
<path d="M216.21 216.68C216.21 216.68 206.5 244.8 211.73 266.68C213.279 273.083 216.286 279.041 220.517 284.091C224.748 289.14 230.087 293.144 236.12 295.79C236.12 295.79 221.93 300.79 225.12 308.48C228.31 316.17 240.54 311.22 244.53 308.73C248.52 306.24 253.53 298.78 254.23 293.8C254.675 291.256 254.842 288.671 254.73 286.09C254.73 286.09 270.9 284.35 281.85 275.39C281.85 275.39 291.56 283.1 298.53 281.61C305.5 280.12 315.45 267.67 314.45 256.48C313.45 245.29 307 245.3 303.06 247C301.015 247.774 299.15 248.958 297.58 250.48C297.58 250.48 303.3 243.48 297.58 233.81C295.892 230.974 293.58 228.559 290.82 226.748C288.06 224.938 284.924 223.779 281.65 223.36C281.65 223.36 278.65 207.43 269.71 201.46C260.77 195.49 228.9 189.31 216.21 216.68Z" stroke="#263238" stroke-width="1.1133" stroke-linecap="round" stroke-linejoin="round"/>
<path d="M297.58 250.52C297.58 250.52 292.36 254.01 289.87 264.71" stroke="#263238" stroke-width="1.1133" stroke-linecap="round" stroke-linejoin="round"/>
<path d="M307.17 255.1C306.56 256.92 304.89 258.01 303.45 257.52C302.01 257.03 301.35 255.16 301.96 253.34C302.57 251.52 304.24 250.43 305.68 250.92C307.12 251.41 307.79 253.28 307.17 255.1Z" fill="white" stroke="#263238" stroke-width="1.1133" stroke-linecap="round" stroke-linejoin="round"/>
<path d="M312.32 258.34C311.71 260.16 310.04 261.25 308.6 260.76C307.16 260.27 306.49 258.4 307.11 256.58C307.73 254.76 309.39 253.67 310.83 254.16C312.27 254.65 312.94 256.52 312.32 258.34Z" fill="white" stroke="#263238" stroke-width="1.1133" stroke-linecap="round" stroke-linejoin="round"/>
<path d="M313.42 263.19C313.22 263.525 312.93 263.796 312.582 263.972C312.235 264.148 311.844 264.222 311.456 264.185C311.068 264.149 310.699 264.003 310.39 263.764C310.082 263.526 309.848 263.205 309.715 262.838C309.582 262.472 309.555 262.075 309.638 261.695C309.722 261.314 309.911 260.965 310.185 260.687C310.459 260.41 310.806 260.216 311.186 260.128C311.565 260.04 311.962 260.061 312.33 260.19C312.861 260.455 313.27 260.915 313.473 261.473C313.676 262.031 313.657 262.645 313.42 263.19V263.19Z" fill="white" stroke="#263238" stroke-width="1.1133" stroke-linecap="round" stroke-linejoin="round"/>
<path d="M306.85 269.85C305.05 273.1 301.45 274.54 298.8 273.07C296.15 271.6 295.47 267.79 297.27 264.54C299.07 261.29 302.67 259.85 305.32 261.32C307.97 262.79 308.65 266.6 306.85 269.85Z" fill="white" stroke="#263238" stroke-width="1.1133" stroke-linecap="round" stroke-linejoin="round"/>
<path d="M236.12 295.81C239.472 297.37 243.283 297.637 246.82 296.56" stroke="#263238" stroke-width="1.1133" stroke-linecap="round" stroke-linejoin="round"/>
<path d="M225.17 308.5C225.17 308.5 226.17 304.27 232.38 301.29" stroke="#263238" stroke-width="1.1133" stroke-linecap="round" stroke-linejoin="round"/>
<path d="M231.39 312.24C231.39 312.24 233.88 306.24 238.11 303.53" stroke="#263238" stroke-width="1.1133" stroke-linecap="round" stroke-linejoin="round"/>
<path d="M133.26 243.4C132.202 242.556 131.359 241.473 130.799 240.241C130.24 239.009 129.98 237.662 130.04 236.31V212.6H68.88C67.386 212.656 65.8976 212.388 64.5168 211.815C63.1359 211.242 61.8953 210.377 60.88 209.28C58.8796 207.164 57.782 204.352 57.82 201.44C57.8119 199.074 58.5081 196.759 59.82 194.79L118.4 102.73C122.8 95.9365 128.647 92.5398 135.94 92.5398C139.861 92.4066 143.69 93.7482 146.67 96.2998C149.53 98.7998 150.96 102.516 150.96 107.45V196.94H166.52C167.595 196.875 168.671 197.048 169.671 197.445C170.672 197.843 171.573 198.455 172.31 199.24C173.626 200.782 174.349 202.743 174.349 204.77C174.349 206.797 173.626 208.758 172.31 210.3C171.573 211.084 170.672 211.697 169.671 212.095C168.671 212.492 167.595 212.665 166.52 212.6H150.85V236.31C150.915 237.652 150.668 238.99 150.128 240.22C149.589 241.45 148.771 242.539 147.74 243.4C145.727 245.087 143.177 245.999 140.55 245.97C137.894 245.991 135.315 245.082 133.26 243.4ZM130 196.94V114.54L78.71 196.94H130Z" fill="#263238"/>
<path d="M218.13 243.88C212.136 241.264 206.827 237.297 202.62 232.29C198.394 227 195.094 221.032 192.86 214.64C190.328 207.735 188.548 200.577 187.55 193.29C186.509 185.356 186.008 177.361 186.05 169.36C186.05 116.647 204.05 90.29 240.05 90.29C276.05 90.29 294.007 116.647 293.92 169.36C293.956 177.323 293.471 185.28 292.47 193.18C291.505 200.468 289.741 207.628 287.21 214.53C284.976 220.922 281.676 226.89 277.45 232.18C273.237 237.194 267.931 241.176 261.94 243.82C255.051 246.865 247.58 248.367 240.05 248.22C232.516 248.371 225.038 246.891 218.13 243.88V243.88ZM250.69 228.75C253.702 227.465 256.436 225.607 258.74 223.28C261.073 220.796 262.991 217.953 264.42 214.86C265.997 211.583 267.272 208.169 268.23 204.66C269.238 200.837 269.974 196.947 270.43 193.02C270.97 188.687 271.33 184.717 271.51 181.11C271.69 177.503 271.777 173.587 271.77 169.36C271.77 164.927 271.683 160.833 271.51 157.08C271.337 153.327 270.96 149.3 270.38 145C269.882 141.076 269.131 137.187 268.13 133.36C267.184 129.886 265.908 126.511 264.32 123.28C262.88 120.236 260.958 117.443 258.63 115.01C256.34 112.729 253.621 110.925 250.63 109.7C243.793 107.06 236.217 107.06 229.38 109.7C226.411 110.91 223.712 112.698 221.44 114.96C219.129 117.383 217.212 120.153 215.76 123.17C214.158 126.372 212.898 129.734 212 133.2C211.024 137.05 210.289 140.958 209.8 144.9C209.22 149.26 208.843 153.32 208.67 157.08C208.497 160.84 208.407 164.933 208.4 169.36C208.4 173.58 208.49 177.513 208.67 181.16C208.85 184.807 209.207 188.807 209.74 193.16C210.201 197.087 210.936 200.976 211.94 204.8C212.884 208.308 214.146 211.722 215.71 215C217.125 218.074 219.026 220.901 221.34 223.37C223.627 225.682 226.345 227.524 229.34 228.79C236.184 231.576 243.846 231.576 250.69 228.79V228.75Z" fill="#263238"/>
<path d="M386.58 243.4C385.522 242.556 384.679 241.473 384.119 240.241C383.56 239.009 383.299 237.662 383.36 236.31V212.6H322.2C320.706 212.656 319.218 212.388 317.837 211.815C316.456 211.242 315.215 210.377 314.2 209.28C312.2 207.164 311.102 204.352 311.14 201.44C311.132 199.074 311.828 196.759 313.14 194.79L371.72 102.73C376.08 95.9366 381.91 92.5399 389.21 92.5399C393.152 92.3915 397.004 93.7341 400 96.2999C402.86 98.7999 404.29 102.517 404.29 107.45V196.94H419.85C420.925 196.875 422 197.048 423.001 197.445C424.002 197.843 424.903 198.455 425.64 199.24C426.956 200.782 427.679 202.743 427.679 204.77C427.679 206.797 426.956 208.758 425.64 210.3C424.903 211.084 424.002 211.697 423.001 212.095C422 212.492 420.925 212.665 419.85 212.6H404.17V236.31C404.235 237.652 403.988 238.99 403.448 240.22C402.909 241.451 402.091 242.539 401.06 243.4C399.047 245.088 396.497 245.999 393.87 245.97C391.214 245.991 388.635 245.082 386.58 243.4V243.4ZM383.36 196.94V114.54L332.07 196.94H383.36Z" fill="#263238"/>
<path d="M196.05 202.5C196.05 202.5 185.6 217.18 184.11 232.11C182.62 247.04 184.36 256.99 188.84 260.73C193.32 264.47 197.79 262.97 200.28 259.48C202.77 255.99 198.79 243.8 198.79 243.8C198.79 243.8 203.02 232.11 209.49 223.9C215.96 215.69 217.2 214.44 217.2 214.44C217.2 214.44 206 201.75 196.05 202.5Z" fill="white"/>
<path d="M196.05 202.5C193.77 205.869 191.747 209.406 190 213.08C195 215.08 202.75 219.18 207.67 226.44C208.27 225.57 208.89 224.71 209.53 223.9C216 215.69 217.24 214.44 217.24 214.44C217.24 214.44 206 201.75 196.05 202.5Z" fill="#5048E5"/>
<path opacity="0.5" d="M196.05 202.5C193.77 205.869 191.747 209.406 190 213.08C195 215.08 202.75 219.18 207.67 226.44C208.27 225.57 208.89 224.71 209.53 223.9C216 215.69 217.24 214.44 217.24 214.44C217.24 214.44 206 201.75 196.05 202.5Z" fill="white"/>
<path d="M196.05 202.5C196.05 202.5 185.6 217.18 184.11 232.11C182.62 247.04 184.36 256.99 188.84 260.73C193.32 264.47 197.79 262.97 200.28 259.48C202.77 255.99 198.79 243.8 198.79 243.8C198.79 243.8 203.02 232.11 209.49 223.9C215.96 215.69 217.2 214.44 217.2 214.44C217.2 214.44 206 201.75 196.05 202.5Z" stroke="#263238" stroke-width="1.1133" stroke-linecap="round" stroke-linejoin="round"/>
<path d="M188.84 260.73C187.618 257.467 187.024 254.003 187.09 250.52" stroke="#263238" stroke-width="1.1133" stroke-linecap="round" stroke-linejoin="round"/>
<path d="M195.55 262.22C195.55 262.22 193.07 257.99 192.82 250.77" stroke="#263238" stroke-width="1.1133" stroke-linecap="round" stroke-linejoin="round"/>
<path d="M199.29 229.12C199.29 226.5 194.29 221.38 187.34 219.12C186.406 221.556 185.634 224.052 185.03 226.59C187.73 227.052 190.352 227.89 192.82 229.08C196.55 231.11 199.29 232.11 199.29 229.12Z" fill="#5048E5" stroke="#263238" stroke-width="1.1133" stroke-linecap="round" stroke-linejoin="round"/>
<path d="M195.44 203.39C193.828 205.847 192.346 208.388 191 211C193.104 211.557 195.123 212.398 197 213.5C204.71 217.97 206.2 218.5 203.72 212C202.22 207.92 198.64 205.15 195.44 203.39Z" fill="#5048E5" stroke="#263238" stroke-width="1.1133" stroke-linecap="round" stroke-linejoin="round"/>
<path d="M277.9 195.25C277.9 195.25 289.74 208.83 292.69 223.55C295.64 238.27 294.89 248.34 290.79 252.49C286.69 256.64 282.1 255.6 279.28 252.37C276.46 249.14 279.28 236.63 279.28 236.63C279.28 236.63 273.92 225.4 266.68 217.86C259.44 210.32 258.07 209.21 258.07 209.21C258.07 209.21 267.92 195.48 277.9 195.25Z" fill="white"/>
<path d="M277.9 195.25C267.9 195.48 258.02 209.25 258.02 209.25C258.02 209.25 259.38 210.37 266.63 217.9C267.986 219.328 269.261 220.83 270.45 222.4C274.234 216.008 279.64 210.73 286.12 207.1C283.735 202.915 280.985 198.949 277.9 195.25V195.25Z" fill="#5048E5"/>
<path opacity="0.5" d="M277.9 195.25C267.9 195.48 258.02 209.25 258.02 209.25C258.02 209.25 259.38 210.37 266.63 217.9C267.986 219.328 269.261 220.83 270.45 222.4C274.234 216.008 279.64 210.73 286.12 207.1C283.735 202.915 280.985 198.949 277.9 195.25V195.25Z" fill="white"/>
<path d="M277.9 195.25C277.9 195.25 289.74 208.83 292.69 223.55C295.64 238.27 294.89 248.34 290.79 252.49C286.69 256.64 282.1 255.6 279.28 252.37C276.46 249.14 279.28 236.63 279.28 236.63C279.28 236.63 273.92 225.4 266.68 217.86C259.44 210.32 258.07 209.21 258.07 209.21C258.07 209.21 267.92 195.48 277.9 195.25Z" stroke="#263238" stroke-width="1.1133" stroke-linecap="round" stroke-linejoin="round"/>
<path d="M290.79 252.49C291.686 249.128 291.938 245.626 291.53 242.17" stroke="#263238" stroke-width="1.1133" stroke-linecap="round" stroke-linejoin="round"/>
<path d="M284.25 254.63C284.25 254.63 286.32 250.18 285.86 242.97" stroke="#263238" stroke-width="1.1133" stroke-linecap="round" stroke-linejoin="round"/>
<path d="M277.29 222.06C277.04 219.45 281.51 213.87 288.21 210.98C289.369 213.311 290.371 215.716 291.21 218.18C288.573 218.915 286.05 220.009 283.71 221.43C280.21 223.78 277.59 225 277.29 222.06Z" fill="#5048E5" stroke="#263238" stroke-width="1.1133" stroke-linecap="round" stroke-linejoin="round"/>
<path d="M278.59 196.08C280.429 198.349 282.145 200.716 283.73 203.17C281.683 203.928 279.749 204.961 277.98 206.24C270.75 211.46 269.31 212.1 271.15 205.42C272.3 201.25 275.58 198.14 278.59 196.08Z" fill="#5048E5" stroke="#263238" stroke-width="1.1133" stroke-linecap="round" stroke-linejoin="round"/>
<path d="M195.07 189.8C195.07 189.8 191.99 200.19 193.15 204.42C194.31 208.65 199.69 204.81 205.08 209.42C210.47 214.03 215.46 222.35 235.87 223.89C256.28 225.43 268.6 214.42 272.87 208.26C277.14 202.1 276.72 194.79 284.03 194.41C291.34 194.03 285.19 179.78 282.88 177.47C282.88 177.47 297.12 156.3 297.12 150.91C297.12 145.52 283.65 146.67 267.12 151.68C267.12 151.68 254.8 145.13 232.47 148.98C210.14 152.83 203.6 159.38 203.6 159.38C203.6 159.38 175.88 162.84 173.96 166.3C172.04 169.76 177.75 184.41 195.07 189.8Z" fill="white"/>
<path d="M284 194.42C291.32 194.03 285.16 179.79 282.85 177.48C282.85 177.48 285.56 173.48 288.61 168.48C280.34 164.16 272.22 161.76 270.06 164.19C265.41 169.41 267.94 179.41 270.06 189.19C272.18 198.97 263.71 203.14 257.79 211.6C251.87 220.06 243.42 210.75 243.42 210.75C240.42 223.02 227.77 214.98 227.77 214.98C218.05 211.98 201.56 202.3 204.94 195.53C208.32 188.76 209.17 182.42 203.25 176.93C197.33 171.44 173.72 166.87 173.72 166.87C172.48 171.04 178.47 184.7 195.08 189.87C195.08 189.87 192 200.26 193.16 204.49C194.32 208.72 199.7 204.88 205.09 209.49C210.48 214.1 215.47 222.42 235.88 223.96C256.29 225.5 268.61 214.49 272.88 208.33C277.15 202.17 276.68 194.8 284 194.42Z" fill="#5048E5"/>
<path opacity="0.5" d="M284 194.42C291.32 194.03 285.16 179.79 282.85 177.48C282.85 177.48 285.56 173.48 288.61 168.48C280.34 164.16 272.22 161.76 270.06 164.19C265.41 169.41 267.94 179.41 270.06 189.19C272.18 198.97 263.71 203.14 257.79 211.6C251.87 220.06 243.42 210.75 243.42 210.75C240.42 223.02 227.77 214.98 227.77 214.98C218.05 211.98 201.56 202.3 204.94 195.53C208.32 188.76 209.17 182.42 203.25 176.93C197.33 171.44 173.72 166.87 173.72 166.87C172.48 171.04 178.47 184.7 195.08 189.87C195.08 189.87 192 200.26 193.16 204.49C194.32 208.72 199.7 204.88 205.09 209.49C210.48 214.1 215.47 222.42 235.88 223.96C256.29 225.5 268.61 214.49 272.88 208.33C277.15 202.17 276.68 194.8 284 194.42Z" fill="white"/>
<path d="M253.89 196.74C254.18 199.18 248.76 201.81 241.81 202.62C234.86 203.43 228.98 202.11 228.69 199.62C228.4 197.13 233.82 194.56 240.78 193.75C247.74 192.94 253.61 194.31 253.89 196.74Z" fill="#5048E5"/>
<path opacity="0.5" d="M253.89 196.74C254.18 199.18 248.76 201.81 241.81 202.62C234.86 203.43 228.98 202.11 228.69 199.62C228.4 197.13 233.82 194.56 240.78 193.75C247.74 192.94 253.61 194.31 253.89 196.74Z" fill="white"/>
<path d="M195.07 189.8C195.07 189.8 191.99 200.19 193.15 204.42C194.31 208.65 199.69 204.81 205.08 209.42C210.47 214.03 215.46 222.35 235.87 223.89C256.28 225.43 268.6 214.42 272.87 208.26C277.14 202.1 276.72 194.79 284.03 194.41C291.34 194.03 285.19 179.78 282.88 177.47C282.88 177.47 297.12 156.3 297.12 150.91C297.12 145.52 283.65 146.67 267.12 151.68C267.12 151.68 254.8 145.13 232.47 148.98C210.14 152.83 203.6 159.38 203.6 159.38C203.6 159.38 175.88 162.84 173.96 166.3C172.04 169.76 177.75 184.41 195.07 189.8Z" stroke="#263238" stroke-width="1.1133" stroke-miterlimit="10"/>
<path d="M274.69 159C264.69 165.72 268.22 172.44 272.69 176.17C275.42 178.45 279.82 178.17 282.83 177.53C282.83 177.53 297.07 156.36 297.07 150.97C297.08 150.92 284.64 152.23 274.69 159Z" fill="#5048E5" stroke="#263238" stroke-width="1.1133" stroke-miterlimit="10"/>
<path d="M173.71 166.8C172.47 170.97 178.46 184.63 195.07 189.8C195.07 189.8 207.75 188.56 203.52 178.36C199.57 168.84 179.6 166.47 173.71 166.8Z" fill="#5048E5" stroke="#263238" stroke-width="1.1133" stroke-miterlimit="10"/>
<path d="M232.41 149C231.1 149.23 229.84 149.47 228.63 149.71C230.63 159.81 233.92 176.63 236.86 176.63C239.8 176.63 242.05 158.19 243.01 147.86C239.456 148.01 235.915 148.39 232.41 149V149Z" fill="#5048E5" stroke="#263238" stroke-width="1.1133" stroke-miterlimit="10"/>
<path d="M220.94 173.63C224 171.83 223.54 158.3 223.05 150.96C219.892 151.745 216.783 152.716 213.74 153.87C214.85 160.74 217.67 175.55 220.94 173.63Z" fill="#5048E5" stroke="#263238" stroke-width="1.1133" stroke-miterlimit="10"/>
<path d="M250.55 167.41C253.68 168.51 255.44 157.26 256.43 148.6C253.269 148.085 250.073 147.814 246.87 147.79C246.77 154.9 247.16 166.22 250.55 167.41Z" fill="#5048E5" stroke="#263238" stroke-width="1.1133" stroke-miterlimit="10"/>
<path d="M246.36 206.35C243.44 205.582 240.336 205.965 237.69 207.42C237.574 207.487 237.475 207.58 237.402 207.692C237.328 207.804 237.282 207.932 237.266 208.065C237.251 208.198 237.266 208.333 237.312 208.459C237.358 208.585 237.433 208.698 237.53 208.79L242.84 213.79C242.94 213.883 243.06 213.951 243.191 213.989C243.322 214.027 243.46 214.032 243.594 214.006C243.728 213.98 243.854 213.922 243.961 213.837C244.068 213.753 244.153 213.644 244.21 213.52L246.93 207.52C246.979 207.407 247.002 207.284 246.999 207.16C246.996 207.037 246.967 206.916 246.913 206.805C246.859 206.694 246.781 206.596 246.686 206.517C246.59 206.439 246.479 206.382 246.36 206.35V206.35Z" fill="#5048E5" stroke="#263238" stroke-width="1.1133" stroke-linecap="round" stroke-linejoin="round"/>
<path d="M233.74 198C234.47 199.93 234.18 201.83 233.09 202.24C232 202.65 230.52 201.43 229.78 199.51C229.04 197.59 229.34 195.68 230.43 195.27C231.52 194.86 233 196.08 233.74 198Z" fill="#263238"/>
<path d="M248.22 196.63C247.84 198.63 248.46 200.48 249.61 200.69C250.76 200.9 252 199.44 252.38 197.41C252.76 195.38 252.14 193.57 250.99 193.35C249.84 193.13 248.6 194.61 248.22 196.63Z" fill="#263238"/>
<path d="M244.21 213.51C244.21 213.51 237.11 223.15 230.64 213.45" stroke="#263238" stroke-width="1.1133" stroke-linecap="round" stroke-linejoin="round"/>
<path d="M242.84 213.78C242.84 213.78 247.56 218.67 252.54 215.93C257.52 213.19 254.54 208.93 254.54 208.93" stroke="#263238" stroke-width="1.1133" stroke-linecap="round" stroke-linejoin="round"/>
<path d="M221.19 190.3C221.19 190.3 222.93 184.08 231.14 185.57" stroke="#263238" stroke-width="3.33991" stroke-linecap="round" stroke-linejoin="round"/>
<path d="M246.07 184.58C246.07 184.58 252.29 180.85 258.01 186.82" stroke="#263238" stroke-width="3.33991" stroke-linecap="round" stroke-linejoin="round"/>
<path d="M216.46 206.98L222.43 208.47" stroke="#263238" stroke-width="1.1133" stroke-miterlimit="10" stroke-linecap="round"/>
<path d="M221.68 210.71L216.46 211.7" stroke="#263238" stroke-width="1.1133" stroke-miterlimit="10" stroke-linecap="round"/>
<path d="M222.68 213.45L218.95 215.44" stroke="#263238" stroke-width="1.1133" stroke-miterlimit="10" stroke-linecap="round"/>
<path d="M260.5 204.24L265.73 202.99" stroke="#263238" stroke-width="1.1133" stroke-miterlimit="10" stroke-linecap="round"/>
<path d="M261.5 206.73H264.98" stroke="#263238" stroke-width="1.1133" stroke-miterlimit="10" stroke-linecap="round"/>
<path d="M262.24 209.22L266.97 210.46" stroke="#263238" stroke-width="1.1133" stroke-miterlimit="10" stroke-linecap="round"/>
<path d="M74.0938 316.324V319.783C74.0938 321.187 73.9388 322.422 73.6289 323.488C73.3281 324.546 72.8861 325.43 72.3027 326.141C71.7194 326.852 71.0176 327.385 70.1973 327.74C69.377 328.096 68.4518 328.273 67.4219 328.273C66.4284 328.273 65.5215 328.096 64.7012 327.74C63.8809 327.385 63.1745 326.852 62.582 326.141C61.9896 325.43 61.5293 324.546 61.2012 323.488C60.8822 322.422 60.7227 321.187 60.7227 319.783V316.324C60.7227 314.921 60.8822 313.69 61.2012 312.633C61.5202 311.566 61.9759 310.678 62.5684 309.967C63.1608 309.256 63.8672 308.723 64.6875 308.367C65.5078 308.003 66.4147 307.82 67.4082 307.82C68.4382 307.82 69.3633 308.003 70.1836 308.367C71.013 308.723 71.7148 309.256 72.2891 309.967C72.8724 310.678 73.319 311.566 73.6289 312.633C73.9388 313.69 74.0938 314.921 74.0938 316.324ZM71.6055 319.783V316.297C71.6055 315.203 71.5143 314.264 71.332 313.48C71.1497 312.688 70.8809 312.04 70.5254 311.539C70.1699 311.038 69.7324 310.669 69.2129 310.432C68.6934 310.186 68.0918 310.062 67.4082 310.062C66.7611 310.062 66.1777 310.186 65.6582 310.432C65.1478 310.669 64.7103 311.038 64.3457 311.539C63.9811 312.04 63.6986 312.688 63.498 313.48C63.3066 314.264 63.2109 315.203 63.2109 316.297V319.783C63.2109 320.886 63.3066 321.834 63.498 322.627C63.6986 323.411 63.9811 324.058 64.3457 324.568C64.7194 325.07 65.166 325.443 65.6855 325.689C66.2051 325.926 66.7839 326.045 67.4219 326.045C68.1055 326.045 68.707 325.926 69.2266 325.689C69.7552 325.443 70.1927 325.07 70.5391 324.568C70.8945 324.058 71.1589 323.411 71.332 322.627C71.5143 321.834 71.6055 320.886 71.6055 319.783ZM77.1562 321.314V319.906C77.1562 318.758 77.3021 317.751 77.5938 316.885C77.8854 316.01 78.291 315.281 78.8105 314.697C79.3301 314.114 79.9362 313.676 80.6289 313.385C81.3216 313.084 82.0645 312.934 82.8574 312.934C83.6686 312.934 84.4206 313.084 85.1133 313.385C85.806 313.676 86.4121 314.114 86.9316 314.697C87.4603 315.281 87.8704 316.01 88.1621 316.885C88.4538 317.751 88.5996 318.758 88.5996 319.906V321.314C88.5996 322.463 88.4538 323.475 88.1621 324.35C87.8704 325.215 87.4648 325.94 86.9453 326.523C86.4258 327.107 85.8197 327.544 85.127 327.836C84.4342 328.128 83.6868 328.273 82.8848 328.273C82.0827 328.273 81.3353 328.128 80.6426 327.836C79.9499 327.544 79.3392 327.107 78.8105 326.523C78.291 325.94 77.8854 325.215 77.5938 324.35C77.3021 323.475 77.1562 322.463 77.1562 321.314ZM79.5762 319.906V321.314C79.5762 322.126 79.6582 322.837 79.8223 323.447C79.9863 324.058 80.2188 324.568 80.5195 324.979C80.8203 325.389 81.1712 325.699 81.5723 325.908C81.9733 326.109 82.4108 326.209 82.8848 326.209C83.4316 326.209 83.9102 326.109 84.3203 325.908C84.7396 325.699 85.0859 325.389 85.3594 324.979C85.6328 324.568 85.8379 324.058 85.9746 323.447C86.1113 322.837 86.1797 322.126 86.1797 321.314V319.906C86.1797 319.095 86.0977 318.389 85.9336 317.787C85.7695 317.176 85.5371 316.666 85.2363 316.256C84.9355 315.837 84.5801 315.527 84.1699 315.326C83.7689 315.117 83.3314 315.012 82.8574 315.012C82.3926 315.012 81.9596 315.117 81.5586 315.326C81.1576 315.527 80.8066 315.837 80.5059 316.256C80.2142 316.666 79.9863 317.176 79.8223 317.787C79.6582 318.389 79.5762 319.095 79.5762 319.906ZM94.1367 316.051V333.688H91.7168V313.207H93.918L94.1367 316.051ZM102.408 319.934V321.314C102.408 322.481 102.299 323.502 102.08 324.377C101.87 325.243 101.556 325.967 101.137 326.551C100.727 327.125 100.221 327.558 99.6191 327.85C99.0176 328.132 98.3294 328.273 97.5547 328.273C96.7799 328.273 96.1055 328.128 95.5312 327.836C94.9661 327.535 94.4876 327.102 94.0957 326.537C93.7129 325.972 93.4076 325.293 93.1797 324.5C92.9609 323.698 92.8105 322.8 92.7285 321.807V319.701C92.8105 318.653 92.9609 317.714 93.1797 316.885C93.3984 316.046 93.6992 315.335 94.082 314.752C94.474 314.16 94.9525 313.708 95.5176 313.398C96.0918 313.089 96.7617 312.934 97.5273 312.934C98.3203 312.934 99.0176 313.07 99.6191 313.344C100.23 313.617 100.74 314.041 101.15 314.615C101.57 315.18 101.884 315.905 102.094 316.789C102.303 317.664 102.408 318.712 102.408 319.934ZM99.9883 321.314V319.934C99.9883 319.113 99.9245 318.398 99.7969 317.787C99.6784 317.176 99.487 316.671 99.2227 316.27C98.9583 315.868 98.6257 315.568 98.2246 315.367C97.8236 315.167 97.3405 315.066 96.7754 315.066C96.2923 315.066 95.8639 315.167 95.4902 315.367C95.1257 315.568 94.8112 315.841 94.5469 316.188C94.2826 316.525 94.0638 316.912 93.8906 317.35C93.7174 317.778 93.5898 318.225 93.5078 318.689V322.832C93.6628 323.415 93.8678 323.967 94.123 324.486C94.3783 324.997 94.7201 325.411 95.1484 325.73C95.5859 326.049 96.1374 326.209 96.8027 326.209C97.3587 326.209 97.8372 326.109 98.2383 325.908C98.6393 325.708 98.9674 325.407 99.2227 325.006C99.487 324.596 99.6784 324.085 99.7969 323.475C99.9245 322.855 99.9883 322.135 99.9883 321.314ZM112.703 324.213C112.703 323.839 112.612 323.511 112.43 323.229C112.247 322.946 111.947 322.673 111.527 322.408C111.117 322.144 110.561 321.861 109.859 321.561C109.176 321.278 108.561 321 108.014 320.727C107.476 320.444 107.02 320.139 106.646 319.811C106.273 319.482 105.986 319.104 105.785 318.676C105.594 318.238 105.498 317.723 105.498 317.131C105.498 316.538 105.607 315.992 105.826 315.49C106.054 314.98 106.373 314.533 106.783 314.15C107.193 313.768 107.686 313.471 108.26 313.262C108.834 313.043 109.477 312.934 110.188 312.934C111.199 312.934 112.061 313.13 112.771 313.521C113.482 313.913 114.025 314.451 114.398 315.135C114.781 315.809 114.973 316.57 114.973 317.418H112.566C112.566 317.008 112.475 316.62 112.293 316.256C112.111 315.891 111.842 315.595 111.486 315.367C111.131 315.13 110.698 315.012 110.188 315.012C109.65 315.012 109.212 315.107 108.875 315.299C108.538 315.49 108.292 315.741 108.137 316.051C107.991 316.352 107.918 316.684 107.918 317.049C107.918 317.322 107.954 317.559 108.027 317.76C108.109 317.951 108.246 318.133 108.438 318.307C108.629 318.471 108.889 318.644 109.217 318.826C109.554 318.999 109.982 319.2 110.502 319.428C111.505 319.82 112.348 320.216 113.031 320.617C113.715 321.018 114.234 321.488 114.59 322.025C114.945 322.563 115.123 323.229 115.123 324.021C115.123 324.669 115.005 325.257 114.768 325.785C114.54 326.305 114.212 326.751 113.783 327.125C113.355 327.499 112.84 327.786 112.238 327.986C111.646 328.178 110.98 328.273 110.242 328.273C109.13 328.273 108.187 328.055 107.412 327.617C106.646 327.171 106.063 326.592 105.662 325.881C105.27 325.161 105.074 324.391 105.074 323.57H107.494C107.521 324.263 107.676 324.801 107.959 325.184C108.251 325.566 108.602 325.831 109.012 325.977C109.422 326.122 109.832 326.195 110.242 326.195C110.78 326.195 111.231 326.118 111.596 325.963C111.96 325.799 112.234 325.566 112.416 325.266C112.607 324.965 112.703 324.614 112.703 324.213ZM118.445 326.66C118.445 326.232 118.577 325.872 118.842 325.58C119.115 325.279 119.507 325.129 120.018 325.129C120.528 325.129 120.915 325.279 121.18 325.58C121.453 325.872 121.59 326.232 121.59 326.66C121.59 327.079 121.453 327.435 121.18 327.727C120.915 328.018 120.528 328.164 120.018 328.164C119.507 328.164 119.115 328.018 118.842 327.727C118.577 327.435 118.445 327.079 118.445 326.66ZM125.828 326.66C125.828 326.232 125.96 325.872 126.225 325.58C126.498 325.279 126.89 325.129 127.4 325.129C127.911 325.129 128.298 325.279 128.562 325.58C128.836 325.872 128.973 326.232 128.973 326.66C128.973 327.079 128.836 327.435 128.562 327.727C128.298 328.018 127.911 328.164 127.4 328.164C126.89 328.164 126.498 328.018 126.225 327.727C125.96 327.435 125.828 327.079 125.828 326.66ZM67.4902 353.193H63.1426V351.047H67.4902C68.3105 351.047 68.9714 350.883 69.4727 350.555C69.9831 350.227 70.3522 349.771 70.5801 349.188C70.8171 348.604 70.9355 347.939 70.9355 347.191C70.9355 346.508 70.8171 345.865 70.5801 345.264C70.3522 344.662 69.9831 344.179 69.4727 343.814C68.9714 343.441 68.3105 343.254 67.4902 343.254H63.6621V361H61.1465V341.094H67.4902C68.7754 341.094 69.86 341.354 70.7441 341.873C71.6283 342.393 72.2982 343.113 72.7539 344.033C73.2188 344.945 73.4512 345.988 73.4512 347.164C73.4512 348.44 73.2188 349.529 72.7539 350.432C72.2982 351.334 71.6283 352.022 70.7441 352.496C69.86 352.961 68.7754 353.193 67.4902 353.193ZM83.4316 358.471V350.445C83.4316 349.862 83.3405 349.393 83.1582 349.037C82.985 348.682 82.7207 348.422 82.3652 348.258C82.0189 348.094 81.5814 348.012 81.0527 348.012C80.5423 348.012 80.1003 348.117 79.7266 348.326C79.362 348.536 79.0794 348.814 78.8789 349.16C78.6875 349.507 78.5918 349.889 78.5918 350.309H76.1719C76.1719 349.78 76.2858 349.256 76.5137 348.736C76.7507 348.217 77.0879 347.747 77.5254 347.328C77.9629 346.9 78.487 346.562 79.0977 346.316C79.7174 346.061 80.4102 345.934 81.1758 345.934C82.0872 345.934 82.8939 346.084 83.5957 346.385C84.2975 346.676 84.849 347.155 85.25 347.82C85.651 348.486 85.8516 349.37 85.8516 350.473V357.773C85.8516 358.266 85.888 358.79 85.9609 359.346C86.043 359.902 86.1569 360.38 86.3027 360.781V361H83.8008C83.6823 360.708 83.5911 360.321 83.5273 359.838C83.4635 359.346 83.4316 358.89 83.4316 358.471ZM83.8145 352.031L83.8418 353.809H82.1602C81.5859 353.809 81.0618 353.872 80.5879 354C80.123 354.128 79.722 354.314 79.3848 354.561C79.0475 354.798 78.7878 355.094 78.6055 355.449C78.4323 355.805 78.3457 356.21 78.3457 356.666C78.3457 357.258 78.4277 357.732 78.5918 358.088C78.7559 358.434 79.002 358.685 79.3301 358.84C79.6582 358.995 80.0729 359.072 80.5742 359.072C81.1849 359.072 81.7227 358.931 82.1875 358.648C82.6523 358.366 83.0124 358.024 83.2676 357.623C83.5319 357.222 83.6549 356.848 83.6367 356.502L84.1699 357.637C84.1335 357.992 84.015 358.38 83.8145 358.799C83.623 359.209 83.3542 359.605 83.0078 359.988C82.6615 360.362 82.2513 360.672 81.7773 360.918C81.3125 361.155 80.7884 361.273 80.2051 361.273C79.3483 361.273 78.5964 361.109 77.9492 360.781C77.3112 360.453 76.8145 359.97 76.459 359.332C76.1035 358.694 75.9258 357.906 75.9258 356.967C75.9258 356.256 76.0488 355.6 76.2949 354.998C76.541 354.396 76.9056 353.877 77.3887 353.439C77.8717 352.993 78.4779 352.646 79.207 352.4C79.9453 352.154 80.7975 352.031 81.7637 352.031H83.8145ZM97.623 346.207H99.7969V361.123C99.7969 362.426 99.569 363.502 99.1133 364.35C98.6667 365.197 98.0423 365.822 97.2402 366.223C96.4382 366.633 95.513 366.838 94.4648 366.838C94.0911 366.838 93.6217 366.77 93.0566 366.633C92.4915 366.496 91.9264 366.286 91.3613 366.004C90.7962 365.73 90.3314 365.384 89.9668 364.965L90.9648 363.283C91.4844 363.812 92.0358 364.19 92.6191 364.418C93.2025 364.646 93.7585 364.76 94.2871 364.76C94.916 364.76 95.4629 364.646 95.9277 364.418C96.3926 364.19 96.7526 363.816 97.0078 363.297C97.263 362.786 97.3906 362.103 97.3906 361.246V349.461L97.623 346.207ZM89.1191 354.314V352.934C89.1191 351.712 89.2331 350.664 89.4609 349.789C89.6888 348.905 90.0169 348.18 90.4453 347.615C90.8828 347.041 91.4069 346.617 92.0176 346.344C92.6283 346.07 93.3118 345.934 94.0684 345.934C94.834 345.934 95.4948 346.089 96.0508 346.398C96.6068 346.708 97.0671 347.16 97.4316 347.752C97.8053 348.335 98.097 349.046 98.3066 349.885C98.5254 350.714 98.6758 351.653 98.7578 352.701V354.547C98.6758 355.586 98.5254 356.52 98.3066 357.35C98.097 358.179 97.8008 358.885 97.418 359.469C97.0443 360.052 96.5794 360.499 96.0234 360.809C95.4674 361.118 94.8066 361.273 94.041 361.273C93.2936 361.273 92.6191 361.132 92.0176 360.85C91.416 360.558 90.8965 360.125 90.459 359.551C90.0306 358.967 89.6979 358.243 89.4609 357.377C89.2331 356.502 89.1191 355.481 89.1191 354.314ZM91.5391 352.934V354.314C91.5391 355.135 91.5983 355.85 91.7168 356.461C91.8353 357.062 92.0176 357.564 92.2637 357.965C92.5189 358.357 92.8424 358.648 93.2344 358.84C93.6354 359.031 94.1139 359.127 94.6699 359.127C95.3444 359.127 95.8958 358.963 96.3242 358.635C96.7526 358.307 97.0944 357.874 97.3496 357.336C97.6139 356.789 97.8236 356.201 97.9785 355.572V351.689C97.8874 351.225 97.7552 350.778 97.582 350.35C97.418 349.912 97.2038 349.525 96.9395 349.188C96.6751 348.841 96.3561 348.568 95.9824 348.367C95.6178 348.167 95.1895 348.066 94.6973 348.066C94.1413 348.066 93.6628 348.167 93.2617 348.367C92.8607 348.568 92.5326 348.868 92.2773 349.27C92.0221 349.671 91.8353 350.176 91.7168 350.787C91.5983 351.398 91.5391 352.113 91.5391 352.934ZM108.711 361.273C107.827 361.273 107.029 361.141 106.318 360.877C105.607 360.613 105.001 360.212 104.5 359.674C103.999 359.127 103.616 358.439 103.352 357.609C103.087 356.78 102.955 355.8 102.955 354.67V353.002C102.955 351.699 103.105 350.596 103.406 349.693C103.716 348.791 104.131 348.066 104.65 347.52C105.17 346.964 105.758 346.562 106.414 346.316C107.07 346.061 107.745 345.934 108.438 345.934C109.367 345.934 110.16 346.084 110.816 346.385C111.473 346.686 112.006 347.132 112.416 347.725C112.826 348.317 113.127 349.046 113.318 349.912C113.519 350.778 113.619 351.776 113.619 352.906V354.314H104.377V352.25H111.199V351.908C111.163 351.143 111.058 350.468 110.885 349.885C110.721 349.301 110.447 348.846 110.064 348.518C109.682 348.18 109.139 348.012 108.438 348.012C107.991 348.012 107.576 348.089 107.193 348.244C106.82 348.39 106.496 348.65 106.223 349.023C105.958 349.388 105.749 349.894 105.594 350.541C105.448 351.188 105.375 352.008 105.375 353.002V354.67C105.375 355.463 105.448 356.146 105.594 356.721C105.749 357.286 105.972 357.755 106.264 358.129C106.564 358.493 106.929 358.767 107.357 358.949C107.795 359.122 108.292 359.209 108.848 359.209C109.659 359.209 110.329 359.054 110.857 358.744C111.386 358.425 111.846 358.02 112.238 357.527L113.51 359.045C113.245 359.419 112.899 359.779 112.471 360.125C112.051 360.462 111.532 360.74 110.912 360.959C110.301 361.169 109.568 361.273 108.711 361.273ZM125.391 349.365V361H122.971V346.207H125.254L125.391 349.365ZM124.803 353.043L123.818 353.002C123.809 351.99 123.923 351.056 124.16 350.199C124.406 349.333 124.753 348.581 125.199 347.943C125.655 347.305 126.197 346.813 126.826 346.467C127.455 346.111 128.152 345.934 128.918 345.934C129.52 345.934 130.066 346.034 130.559 346.234C131.051 346.426 131.47 346.736 131.816 347.164C132.163 347.592 132.427 348.148 132.609 348.832C132.801 349.507 132.896 350.331 132.896 351.307V361H130.477V351.279C130.477 350.505 130.39 349.885 130.217 349.42C130.053 348.946 129.798 348.604 129.451 348.395C129.114 348.176 128.686 348.066 128.166 348.066C127.692 348.066 127.25 348.199 126.84 348.463C126.43 348.727 126.07 349.092 125.76 349.557C125.459 350.021 125.222 350.555 125.049 351.156C124.885 351.749 124.803 352.378 124.803 353.043ZM136.027 354.314V352.906C136.027 351.758 136.173 350.751 136.465 349.885C136.757 349.01 137.162 348.281 137.682 347.697C138.201 347.114 138.807 346.676 139.5 346.385C140.193 346.084 140.936 345.934 141.729 345.934C142.54 345.934 143.292 346.084 143.984 346.385C144.677 346.676 145.283 347.114 145.803 347.697C146.331 348.281 146.742 349.01 147.033 349.885C147.325 350.751 147.471 351.758 147.471 352.906V354.314C147.471 355.463 147.325 356.475 147.033 357.35C146.742 358.215 146.336 358.94 145.816 359.523C145.297 360.107 144.691 360.544 143.998 360.836C143.305 361.128 142.558 361.273 141.756 361.273C140.954 361.273 140.206 361.128 139.514 360.836C138.821 360.544 138.21 360.107 137.682 359.523C137.162 358.94 136.757 358.215 136.465 357.35C136.173 356.475 136.027 355.463 136.027 354.314ZM138.447 352.906V354.314C138.447 355.126 138.529 355.837 138.693 356.447C138.857 357.058 139.09 357.568 139.391 357.979C139.691 358.389 140.042 358.699 140.443 358.908C140.844 359.109 141.282 359.209 141.756 359.209C142.303 359.209 142.781 359.109 143.191 358.908C143.611 358.699 143.957 358.389 144.23 357.979C144.504 357.568 144.709 357.058 144.846 356.447C144.982 355.837 145.051 355.126 145.051 354.314V352.906C145.051 352.095 144.969 351.389 144.805 350.787C144.641 350.176 144.408 349.666 144.107 349.256C143.807 348.837 143.451 348.527 143.041 348.326C142.64 348.117 142.202 348.012 141.729 348.012C141.264 348.012 140.831 348.117 140.43 348.326C140.029 348.527 139.678 348.837 139.377 349.256C139.085 349.666 138.857 350.176 138.693 350.787C138.529 351.389 138.447 352.095 138.447 352.906ZM155.988 346.207V348.148H149.084V346.207H155.988ZM151.34 342.611H153.76V357.336C153.76 357.837 153.819 358.215 153.938 358.471C154.065 358.726 154.225 358.895 154.416 358.977C154.607 359.059 154.812 359.1 155.031 359.1C155.195 359.1 155.378 359.081 155.578 359.045C155.779 358.999 155.915 358.963 155.988 358.936L155.975 361C155.811 361.064 155.592 361.123 155.318 361.178C155.045 361.242 154.699 361.273 154.279 361.273C153.76 361.273 153.277 361.15 152.83 360.904C152.383 360.658 152.023 360.248 151.75 359.674C151.477 359.09 151.34 358.307 151.34 357.322V342.611ZM168.785 361H166.365V344.648C166.365 343.582 166.534 342.684 166.871 341.955C167.217 341.217 167.705 340.661 168.334 340.287C168.972 339.904 169.729 339.713 170.604 339.713C170.85 339.713 171.096 339.731 171.342 339.768C171.597 339.804 171.839 339.859 172.066 339.932L171.957 341.996C171.811 341.951 171.633 341.919 171.424 341.9C171.223 341.882 171.032 341.873 170.85 341.873C170.412 341.873 170.038 341.982 169.729 342.201C169.419 342.411 169.182 342.721 169.018 343.131C168.863 343.541 168.785 344.047 168.785 344.648V361ZM171.301 346.207V348.148H164.438V346.207H171.301ZM173.652 354.314V352.906C173.652 351.758 173.798 350.751 174.09 349.885C174.382 349.01 174.787 348.281 175.307 347.697C175.826 347.114 176.432 346.676 177.125 346.385C177.818 346.084 178.561 345.934 179.354 345.934C180.165 345.934 180.917 346.084 181.609 346.385C182.302 346.676 182.908 347.114 183.428 347.697C183.956 348.281 184.367 349.01 184.658 349.885C184.95 350.751 185.096 351.758 185.096 352.906V354.314C185.096 355.463 184.95 356.475 184.658 357.35C184.367 358.215 183.961 358.94 183.441 359.523C182.922 360.107 182.316 360.544 181.623 360.836C180.93 361.128 180.183 361.273 179.381 361.273C178.579 361.273 177.831 361.128 177.139 360.836C176.446 360.544 175.835 360.107 175.307 359.523C174.787 358.94 174.382 358.215 174.09 357.35C173.798 356.475 173.652 355.463 173.652 354.314ZM176.072 352.906V354.314C176.072 355.126 176.154 355.837 176.318 356.447C176.482 357.058 176.715 357.568 177.016 357.979C177.316 358.389 177.667 358.699 178.068 358.908C178.469 359.109 178.907 359.209 179.381 359.209C179.928 359.209 180.406 359.109 180.816 358.908C181.236 358.699 181.582 358.389 181.855 357.979C182.129 357.568 182.334 357.058 182.471 356.447C182.607 355.837 182.676 355.126 182.676 354.314V352.906C182.676 352.095 182.594 351.389 182.43 350.787C182.266 350.176 182.033 349.666 181.732 349.256C181.432 348.837 181.076 348.527 180.666 348.326C180.265 348.117 179.827 348.012 179.354 348.012C178.889 348.012 178.456 348.117 178.055 348.326C177.654 348.527 177.303 348.837 177.002 349.256C176.71 349.666 176.482 350.176 176.318 350.787C176.154 351.389 176.072 352.095 176.072 352.906ZM195.691 357.582V346.207H198.111V361H195.814L195.691 357.582ZM196.143 354.465L197.1 354.438C197.1 355.422 197.013 356.333 196.84 357.172C196.676 358.001 196.402 358.721 196.02 359.332C195.646 359.943 195.149 360.421 194.529 360.768C193.91 361.105 193.148 361.273 192.246 361.273C191.635 361.273 191.079 361.169 190.578 360.959C190.086 360.749 189.658 360.426 189.293 359.988C188.938 359.551 188.66 358.981 188.459 358.279C188.268 357.577 188.172 356.734 188.172 355.75V346.207H190.578V355.777C190.578 356.443 190.637 356.994 190.756 357.432C190.874 357.86 191.034 358.202 191.234 358.457C191.435 358.703 191.658 358.876 191.904 358.977C192.15 359.077 192.401 359.127 192.656 359.127C193.513 359.127 194.197 358.922 194.707 358.512C195.217 358.092 195.582 357.532 195.801 356.83C196.029 356.119 196.143 355.331 196.143 354.465ZM204.168 349.365V361H201.748V346.207H204.031L204.168 349.365ZM203.58 353.043L202.596 353.002C202.587 351.99 202.701 351.056 202.938 350.199C203.184 349.333 203.53 348.581 203.977 347.943C204.432 347.305 204.975 346.813 205.604 346.467C206.232 346.111 206.93 345.934 207.695 345.934C208.297 345.934 208.844 346.034 209.336 346.234C209.828 346.426 210.247 346.736 210.594 347.164C210.94 347.592 211.204 348.148 211.387 348.832C211.578 349.507 211.674 350.331 211.674 351.307V361H209.254V351.279C209.254 350.505 209.167 349.885 208.994 349.42C208.83 348.946 208.575 348.604 208.229 348.395C207.891 348.176 207.463 348.066 206.943 348.066C206.469 348.066 206.027 348.199 205.617 348.463C205.207 348.727 204.847 349.092 204.537 349.557C204.236 350.021 203.999 350.555 203.826 351.156C203.662 351.749 203.58 352.378 203.58 353.043ZM223.062 358.129V340H225.469V361H223.268L223.062 358.129ZM214.791 354.314V352.934C214.791 351.712 214.91 350.664 215.146 349.789C215.383 348.905 215.721 348.18 216.158 347.615C216.596 347.041 217.12 346.617 217.73 346.344C218.341 346.07 219.016 345.934 219.754 345.934C220.52 345.934 221.176 346.089 221.723 346.398C222.279 346.708 222.743 347.16 223.117 347.752C223.491 348.335 223.783 349.046 223.992 349.885C224.211 350.714 224.357 351.653 224.43 352.701V354.547C224.348 355.586 224.197 356.52 223.979 357.35C223.769 358.179 223.477 358.885 223.104 359.469C222.73 360.052 222.265 360.499 221.709 360.809C221.153 361.118 220.492 361.273 219.727 361.273C218.997 361.273 218.332 361.132 217.73 360.85C217.129 360.558 216.605 360.125 216.158 359.551C215.721 358.967 215.383 358.243 215.146 357.377C214.91 356.502 214.791 355.481 214.791 354.314ZM217.211 352.934V354.314C217.211 355.135 217.27 355.85 217.389 356.461C217.507 357.062 217.694 357.564 217.949 357.965C218.204 358.357 218.528 358.648 218.92 358.84C219.321 359.031 219.799 359.127 220.355 359.127C221.03 359.127 221.581 358.963 222.01 358.635C222.438 358.307 222.78 357.874 223.035 357.336C223.299 356.789 223.509 356.201 223.664 355.572V351.689C223.573 351.225 223.441 350.778 223.268 350.35C223.094 349.912 222.876 349.525 222.611 349.188C222.356 348.841 222.042 348.568 221.668 348.367C221.303 348.167 220.875 348.066 220.383 348.066C219.827 348.066 219.344 348.167 218.934 348.367C218.533 348.568 218.204 348.868 217.949 349.27C217.703 349.671 217.516 350.176 217.389 350.787C217.27 351.398 217.211 352.113 217.211 352.934Z" fill="black"/>
</svg>
