<svg width="500" height="500" viewBox="0 0 500 500" fill="none" xmlns="http://www.w3.org/2000/svg">
<path d="M41.06 263.18C41.06 263.18 43.4 335.85 104.06 384.29C164.72 432.73 248.8 436.2 316.86 440.81C384.92 445.42 437.19 406.88 445.06 348.64C452.93 290.4 401 273.31 372.73 207C344.46 140.69 347 118.92 287.33 78.1501C227.66 37.3801 134.23 62.4101 85.27 132.27C36.31 202.13 41.06 263.18 41.06 263.18Z" fill="#5048E5"/>
<path opacity="0.7" d="M41.06 263.18C41.06 263.18 43.4 335.85 104.06 384.29C164.72 432.73 248.8 436.2 316.86 440.81C384.92 445.42 437.19 406.88 445.06 348.64C452.93 290.4 401 273.31 372.73 207C344.46 140.69 347 118.92 287.33 78.1501C227.66 37.3801 134.23 62.4101 85.27 132.27C36.31 202.13 41.06 263.18 41.06 263.18Z" fill="white"/>
<path d="M68.67 380.53H59.49" stroke="#263238" stroke-width="1.1133" stroke-miterlimit="10"/>
<path d="M440.51 380.53H83.1899" stroke="#263238" stroke-width="1.1133" stroke-miterlimit="10"/>
<path d="M306.07 418.91C322.854 418.91 336.46 415.167 336.46 410.55C336.46 405.933 322.854 402.19 306.07 402.19C289.286 402.19 275.68 405.933 275.68 410.55C275.68 415.167 289.286 418.91 306.07 418.91Z" fill="#263238"/>
<path d="M149 429.54C117.37 429.54 112.7 424.97 112.24 421.28C112.136 420.512 112.211 419.729 112.461 418.995C112.711 418.261 113.128 417.595 113.68 417.05C122.2 408.11 171.3 411.89 239.24 417.12C248.72 417.85 258.52 418.6 268.57 419.35C337.22 424.45 364.86 423.79 370.57 416.89C371.73 415.48 371.97 413.72 371.33 411.34C368.61 401.39 332.25 401.34 318.48 402.12C318.165 402.136 317.856 402.028 317.62 401.819C317.384 401.609 317.241 401.315 317.22 401C317.211 400.844 317.232 400.688 317.283 400.541C317.335 400.393 317.415 400.257 317.519 400.141C317.623 400.025 317.749 399.93 317.89 399.863C318.031 399.796 318.184 399.758 318.34 399.75C323.61 399.44 369.91 397.11 373.62 410.75C374.47 413.89 374.08 416.4 372.4 418.44C365.99 426.22 339.75 427.05 268.4 421.75C258.34 421 248.54 420.25 239.06 419.52C174.3 414.52 123.14 410.59 115.4 418.72C115.094 419.01 114.862 419.37 114.723 419.768C114.583 420.166 114.541 420.592 114.6 421.01C114.89 423.37 120.6 428.65 166.6 426.81C192.33 425.81 218.18 422.98 218.44 422.95C218.741 422.938 219.036 423.04 219.264 423.237C219.493 423.433 219.638 423.709 219.671 424.009C219.704 424.308 219.622 424.609 219.442 424.851C219.262 425.092 218.997 425.256 218.7 425.31C218.44 425.31 192.51 428.15 166.7 429.18C160.06 429.42 154.18 429.54 149 429.54Z" fill="white" stroke="#263238" stroke-width="1.1133" stroke-miterlimit="10"/>
<path d="M294.77 417.89C314.547 417.89 330.58 401.857 330.58 382.08C330.58 362.303 314.547 346.27 294.77 346.27C274.993 346.27 258.96 362.303 258.96 382.08C258.96 401.857 274.993 417.89 294.77 417.89Z" fill="white"/>
<path d="M294.77 417.89C301.287 417.894 307.681 416.12 313.264 412.758C318.846 409.395 323.405 404.573 326.449 398.811C329.492 393.049 330.905 386.565 330.536 380.059C330.166 373.552 328.027 367.27 324.35 361.89C323.96 377.49 315.35 400.52 270.57 408.44C277.162 414.52 285.802 417.894 294.77 417.89V417.89Z" fill="#5048E5"/>
<path opacity="0.3" d="M294.77 417.89C301.287 417.894 307.681 416.12 313.264 412.758C318.846 409.395 323.405 404.573 326.449 398.811C329.492 393.049 330.905 386.565 330.536 380.059C330.166 373.552 328.027 367.27 324.35 361.89C323.96 377.49 315.35 400.52 270.57 408.44C277.162 414.52 285.802 417.894 294.77 417.89V417.89Z" fill="white"/>
<path d="M312.39 396.12C306.004 389.908 298.25 385.28 289.75 382.61C298.25 385.28 306.004 389.908 312.39 396.12H314.29C318.505 391.942 322.134 387.212 325.08 382.06C308.31 364.34 292 366.15 292 366.15C292 366.15 308.36 364.34 325.13 382.08C326.05 380.43 326.82 378.88 327.45 377.45C320.47 367.67 308.45 361 302 360L300.5 359.64C298.188 359.22 295.823 359.186 293.5 359.54C295.823 359.186 298.188 359.22 300.5 359.64L304.77 347.64C302.752 347.063 300.688 346.665 298.6 346.45C295.83 350.92 288.7 365.2 288.7 393.53C288.7 365.2 295.83 350.92 298.6 346.45C297.4 346.34 296.2 346.27 294.97 346.27C293.617 346.274 292.265 346.354 290.92 346.51C286.7 352.89 278.63 367.96 278.09 390.58C286.46 393.63 297.66 395.91 312.39 396.12ZM320.48 388.83C306.22 374.93 290.48 374.2 290.48 374.2C290.48 374.2 306.22 374.93 320.48 388.83V388.83Z" stroke="#263238" stroke-width="1.1133" stroke-linecap="round" stroke-linejoin="round"/>
<path d="M278.05 390.64C278.59 368.02 286.66 352.95 290.88 346.57C287.578 346.94 284.344 347.768 281.27 349.03C273.691 360.148 269.41 373.183 268.92 386.63C271.857 388.198 274.909 389.538 278.05 390.64Z" stroke="#263238" stroke-width="1.1133" stroke-linecap="round" stroke-linejoin="round"/>
<path d="M281.27 349C275.086 351.55 269.738 355.777 265.829 361.205C261.92 366.634 259.607 373.047 259.15 379.72C262.094 382.427 265.379 384.74 268.92 386.6C269.41 373.153 273.691 360.119 281.27 349V349Z" stroke="#263238" stroke-width="1.1133" stroke-linecap="round" stroke-linejoin="round"/>
<path d="M327.4 377.45C328.179 375.728 328.847 373.958 329.4 372.15C327.905 367.05 325.299 362.344 321.77 358.37L319 367.61L321.72 358.37C319.511 355.892 316.971 353.732 314.17 351.95L311.12 363.36L314.19 352C311.262 350.127 308.075 348.695 304.73 347.75L300.46 359.75C307 360.69 317.11 364.54 327.4 377.45Z" stroke="#263238" stroke-width="1.1133" stroke-linecap="round" stroke-linejoin="round"/>
<path d="M330.77 383.77C330.77 383.25 330.77 382.77 330.77 382.21C330.77 378.805 330.285 375.418 329.33 372.15C328.777 373.958 328.109 375.728 327.33 377.45C326.901 378.507 326.393 379.53 325.81 380.51C325.87 380.57 324.95 382.02 325.01 382.08C325.07 382.14 324.01 383.88 324.01 383.82C321.63 388.05 314.45 396.15 314.57 396.15C314.45 396.15 310.69 399.56 308.64 401.28C304.89 404.386 300.916 407.21 296.75 409.73H297.01H296.75C292.653 412.206 288.416 414.443 284.06 416.43C287.558 417.531 291.203 418.09 294.87 418.09C295.48 418.09 296.08 418.09 296.67 418.09C304 414.1 315.65 405 330.77 383.77Z" stroke="#263238" stroke-width="1.1133" stroke-linecap="round" stroke-linejoin="round"/>
<path d="M330.77 383.77C315.65 405 304 414.1 296.73 418C305.645 417.551 314.073 413.795 320.367 407.466C326.662 401.136 330.371 392.688 330.77 383.77V383.77Z" stroke="#263238" stroke-width="1.1133" stroke-linecap="round" stroke-linejoin="round"/>
<path d="M266.89 404.57C271.327 410.148 277.326 414.277 284.12 416.43C288.476 414.443 292.713 412.206 296.81 409.73C288.27 411.31 274.91 407.39 266.89 404.57Z" stroke="#263238" stroke-width="1.1133" stroke-linecap="round" stroke-linejoin="round"/>
<path d="M296.81 409.73C300.976 407.21 304.95 404.386 308.7 401.28C282.91 403.92 267 395.93 260.24 391.39C261.516 396.198 263.781 400.687 266.89 404.57C274.91 407.39 288.27 411.31 296.81 409.73Z" stroke="#263238" stroke-width="1.1133" stroke-linecap="round" stroke-linejoin="round"/>
<path d="M308.7 401.28C310.75 399.56 312.6 397.84 314.29 396.14H312.39C312.53 396.27 312.67 396.4 312.8 396.54C312.67 396.4 312.53 396.27 312.39 396.14C297.66 395.93 286.46 393.65 278.05 390.66C265.76 386.4 261.33 381.82 259.15 379.77C259.09 380.59 259.05 381.4 259.05 382.23C259.051 385.328 259.451 388.414 260.24 391.41C267 395.93 282.91 403.92 308.7 401.28Z" stroke="#263238" stroke-width="1.1133" stroke-linecap="round" stroke-linejoin="round"/>
<path d="M294.77 417.89C314.547 417.89 330.58 401.857 330.58 382.08C330.58 362.303 314.547 346.27 294.77 346.27C274.993 346.27 258.96 362.303 258.96 382.08C258.96 401.857 274.993 417.89 294.77 417.89Z" stroke="#263238" stroke-width="1.1133" stroke-linecap="round" stroke-linejoin="round"/>
<path d="M360.73 320.88C360.73 320.88 358.28 312.93 351.14 310.07C346.14 308.07 340.47 308.61 335.32 309.5C325.74 311.17 317.38 314.98 308.32 318.23C308.32 318.23 312.2 316.8 328.11 324.56C333.97 327.41 340.67 329.63 347.37 329.48C352.74 329.36 361 327.82 360.73 320.88Z" fill="#5048E5"/>
<path d="M361.59 297.51C361.59 297.51 361.59 289.18 355.59 284.39C351.41 281.05 345.79 279.9 340.59 279.27C330.93 278.1 321.83 279.33 312.19 279.82C312.19 279.82 316.32 279.58 329.31 291.6C334.1 296.02 339.88 300.08 346.31 301.87C351.49 303.31 359.83 304.23 361.59 297.51Z" fill="#5048E5"/>
<path d="M378 328.42C378 328.42 371.51 323.21 371.49 315.52C371.49 310.17 374.06 305.06 376.79 300.61C381.87 292.31 388.49 285.95 394.87 278.7C394.87 278.7 392.11 281.78 393.45 299.43C393.95 305.93 393.53 312.98 390.92 319.15C388.87 324.11 384.4 331.22 378 328.42Z" fill="#5048E5"/>
<path d="M401 341.2C401 341.2 400.08 332.93 405.5 327.47C409.26 323.68 414.71 321.88 419.78 320.66C429.24 318.38 438.42 318.55 448.05 317.92C448.05 317.92 443.93 318.15 432.41 331.59C428.17 336.59 422.9 341.24 416.69 343.77C411.74 345.8 403.56 347.67 401 341.2Z" fill="#5048E5"/>
<path d="M399.53 311.71C399.53 311.71 391.28 310.58 387.32 303.99C384.56 299.41 384.15 293.69 384.2 288.47C384.3 278.75 386.72 269.88 388.47 260.39C388.47 260.39 387.68 264.45 397.9 278.9C401.66 284.23 404.9 290.49 405.9 297.13C406.61 302.46 406.42 310.85 399.53 311.71Z" fill="#5048E5"/>
<path d="M423.27 296.9C423.27 296.9 429.2 302.74 436.84 301.9C442.15 301.29 446.93 298.12 451.03 294.9C458.67 288.9 464.22 281.56 470.67 274.39C470.67 274.39 467.94 277.48 450.25 278.21C443.74 278.48 436.79 279.71 430.96 283.03C426.28 285.65 419.75 290.92 423.27 296.9Z" fill="#5048E5"/>
<path d="M416.4 291.13C416.4 291.13 424.68 291.96 430.08 286.49C433.84 282.68 435.58 277.22 436.75 272.13C438.93 262.66 438.67 253.47 439.19 243.84C439.19 243.84 439.01 247.96 425.68 259.62C420.78 263.91 416.13 269.23 413.68 275.46C411.69 280.47 409.9 288.67 416.4 291.13Z" fill="#5048E5"/>
<path d="M386.83 371.74L372.53 336.55L356.04 295.86" stroke="#263238" stroke-width="1.1133" stroke-linecap="round" stroke-linejoin="round"/>
<path d="M390.13 365.69L404.42 316.76L419.82 286.52" stroke="#263238" stroke-width="1.1133" stroke-linecap="round" stroke-linejoin="round"/>
<path d="M395.62 346.45L409.92 338.2" stroke="#263238" stroke-width="1.1133" stroke-linecap="round" stroke-linejoin="round"/>
<path d="M404.42 316.76L397.27 300.81" stroke="#263238" stroke-width="1.1133" stroke-linecap="round" stroke-linejoin="round"/>
<path d="M413.37 300.89L430.81 293.11" stroke="#263238" stroke-width="1.1133" stroke-linecap="round" stroke-linejoin="round"/>
<path d="M375.28 343.15L381.33 318.96" stroke="#263238" stroke-width="1.1133" stroke-linecap="round" stroke-linejoin="round"/>
<path d="M367.26 324.76L353.29 317.31" stroke="#263238" stroke-width="1.1133" stroke-linecap="round" stroke-linejoin="round"/>
<path d="M394.16 389.33H382.24C380.291 389.329 378.404 388.649 376.904 387.405C375.403 386.162 374.383 384.434 374.02 382.52L369.78 360.19H406.62L402.39 382.52C402.025 384.435 401.003 386.163 399.501 387.406C397.999 388.649 396.11 389.33 394.16 389.33V389.33Z" fill="#263238" stroke="#263238" stroke-width="1.1133" stroke-linecap="round" stroke-linejoin="round"/>
<path d="M266.331 303.99C244.071 303.99 230.691 284.24 225.941 266.87L225.781 266.26C225.528 265.418 225.447 264.533 225.544 263.659C225.641 262.785 225.913 261.939 226.344 261.173C226.775 260.406 227.356 259.734 228.053 259.198C228.749 258.661 229.547 258.27 230.398 258.049C231.249 257.827 232.136 257.78 233.006 257.909C233.876 258.039 234.711 258.342 235.461 258.802C236.211 259.261 236.86 259.867 237.371 260.583C237.881 261.3 238.242 262.111 238.431 262.97L238.551 263.42C242.161 276.64 251.991 291.75 267.761 290.88C270.726 290.777 273.637 290.052 276.304 288.751C278.971 287.451 281.334 285.604 283.241 283.33C291.891 273.41 295.761 251.84 294.901 240.96C294.82 240.262 294.88 239.555 295.078 238.88C295.276 238.206 295.608 237.578 296.054 237.035C296.5 236.492 297.051 236.044 297.674 235.719C298.297 235.393 298.98 235.197 299.68 235.141C300.381 235.085 301.086 235.171 301.753 235.394C302.419 235.617 303.034 235.971 303.561 236.437C304.087 236.903 304.514 237.47 304.817 238.104C305.119 238.739 305.291 239.428 305.321 240.13C306.321 252.24 305.001 278.27 293.091 291.92C290.043 295.509 286.284 298.429 282.052 300.494C277.82 302.559 273.206 303.726 268.501 303.92C267.771 303.97 267.041 303.99 266.331 303.99Z" fill="white"/>
<path d="M299.691 235.33C298.31 235.442 297.029 236.098 296.131 237.154C295.233 238.21 294.79 239.579 294.901 240.96C295.321 246.27 294.611 254.12 292.771 261.96C295.399 261.849 298.027 262.187 300.541 262.96C299.946 270.484 297.304 277.701 292.901 283.83C283.191 297.32 268.631 301.63 257.301 300.01C252.231 299.29 246.421 296.63 241.531 293.9C248.166 300.371 257.063 303.998 266.331 304.01C267.041 304.01 267.771 304.01 268.501 303.95C273.206 303.756 277.82 302.589 282.052 300.524C286.284 298.459 290.043 295.539 293.091 291.95C305.001 278.3 306.281 252.27 305.321 240.16C305.272 239.472 305.087 238.801 304.776 238.185C304.466 237.569 304.037 237.02 303.513 236.571C302.99 236.122 302.382 235.781 301.726 235.568C301.07 235.355 300.379 235.274 299.691 235.33V235.33Z" fill="#5048E5"/>
<path opacity="0.5" d="M299.691 235.33C298.31 235.442 297.029 236.098 296.131 237.154C295.233 238.21 294.79 239.579 294.901 240.96C295.321 246.27 294.611 254.12 292.771 261.96C295.399 261.849 298.027 262.187 300.541 262.96C299.946 270.484 297.304 277.701 292.901 283.83C283.191 297.32 268.631 301.63 257.301 300.01C252.231 299.29 246.421 296.63 241.531 293.9C248.166 300.371 257.063 303.998 266.331 304.01C267.041 304.01 267.771 304.01 268.501 303.95C273.206 303.756 277.82 302.589 282.052 300.524C286.284 298.459 290.043 295.539 293.091 291.95C305.001 278.3 306.281 252.27 305.321 240.16C305.272 239.472 305.087 238.801 304.776 238.185C304.466 237.569 304.037 237.02 303.513 236.571C302.99 236.122 302.382 235.781 301.726 235.568C301.07 235.355 300.379 235.274 299.691 235.33V235.33Z" fill="white"/>
<path d="M266.331 303.99C244.071 303.99 230.691 284.24 225.941 266.87L225.781 266.26C225.528 265.418 225.447 264.533 225.544 263.659C225.641 262.785 225.913 261.939 226.344 261.173C226.775 260.406 227.356 259.734 228.053 259.198C228.749 258.661 229.547 258.27 230.398 258.049C231.249 257.827 232.136 257.78 233.006 257.909C233.876 258.039 234.711 258.342 235.461 258.802C236.211 259.261 236.86 259.867 237.371 260.583C237.881 261.3 238.242 262.111 238.431 262.97L238.551 263.42C242.161 276.64 251.991 291.75 267.761 290.88C270.726 290.777 273.637 290.052 276.304 288.751C278.971 287.451 281.334 285.604 283.241 283.33C291.891 273.41 295.761 251.84 294.901 240.96C294.82 240.262 294.88 239.555 295.078 238.88C295.276 238.206 295.608 237.578 296.054 237.035C296.5 236.492 297.051 236.044 297.674 235.719C298.297 235.393 298.98 235.197 299.68 235.141C300.381 235.085 301.086 235.171 301.753 235.394C302.419 235.617 303.034 235.971 303.561 236.437C304.087 236.903 304.514 237.47 304.817 238.104C305.119 238.739 305.291 239.428 305.321 240.13C306.321 252.24 305.001 278.27 293.091 291.92C290.043 295.509 286.284 298.429 282.052 300.494C277.82 302.559 273.206 303.726 268.501 303.92C267.771 303.97 267.041 303.99 266.331 303.99Z" stroke="#263238" stroke-width="1.1133" stroke-linecap="round" stroke-linejoin="round"/>
<path d="M253.491 290.46C254.021 288.01 248.161 291.84 243.251 295.41C245.067 296.945 247.022 298.307 249.091 299.48C250.841 296.63 252.981 292.82 253.491 290.46Z" fill="#5048E5" stroke="#263238" stroke-width="1.1133" stroke-linecap="round" stroke-linejoin="round"/>
<path d="M266.331 303.99C267.041 303.99 267.771 303.99 268.501 303.93C270.625 303.811 272.736 303.513 274.811 303.04C272.051 299.44 268.251 294.68 267.161 294.32C265.911 293.9 263.501 300.03 262.161 303.75C263.545 303.911 264.937 303.991 266.331 303.99V303.99Z" fill="#5048E5" stroke="#263238" stroke-width="1.1133" stroke-linecap="round" stroke-linejoin="round"/>
<path d="M238.551 263.42L238.431 262.97C238.242 262.111 237.881 261.299 237.371 260.583C236.86 259.867 236.211 259.261 235.461 258.801C234.711 258.342 233.876 258.038 233.006 257.909C232.136 257.78 231.249 257.827 230.398 258.048C229.547 258.27 228.749 258.661 228.053 259.197C227.356 259.734 226.775 260.406 226.344 261.172C225.913 261.939 225.641 262.785 225.544 263.659C225.447 264.533 225.528 265.418 225.781 266.26L225.941 266.87C227.608 272.97 230.169 278.79 233.541 284.14L245.451 278.47C242.328 273.873 239.996 268.786 238.551 263.42Z" fill="#5048E5" stroke="#263238" stroke-width="1.1133" stroke-linecap="round" stroke-linejoin="round"/>
<path d="M293.091 291.92C294.006 290.861 294.854 289.745 295.631 288.58C291.851 287.29 286.191 285.51 284.091 285.7C281.601 285.93 284.981 293.93 286.721 297.7C289.063 296.029 291.201 294.089 293.091 291.92V291.92Z" fill="#5048E5" stroke="#263238" stroke-width="1.1133" stroke-linecap="round" stroke-linejoin="round"/>
<path d="M293.301 270.55C292.901 271.35 297.791 274.91 301.091 277.2C302.138 274.085 302.979 270.905 303.611 267.68C299.611 268.48 293.691 269.77 293.301 270.55Z" fill="#5048E5" stroke="#263238" stroke-width="1.1133" stroke-linecap="round" stroke-linejoin="round"/>
<path d="M305.231 255.76C305.451 252.91 305.561 250.19 305.571 247.69C302.131 249.58 298.051 252.2 298.051 253.92C298.051 255.64 301.871 255.85 305.231 255.76Z" fill="#5048E5" stroke="#263238" stroke-width="1.1133" stroke-linecap="round" stroke-linejoin="round"/>
<path d="M251.391 178.39C251.391 178.39 241.681 206.51 246.911 228.39C248.46 234.793 251.467 240.751 255.698 245.801C259.928 250.85 265.268 254.854 271.301 257.5C271.301 257.5 257.111 262.5 260.301 270.19C263.491 277.88 275.721 272.93 279.711 270.44C283.701 267.95 288.711 260.49 289.411 255.51C289.856 252.966 290.023 250.381 289.911 247.8C289.911 247.8 306.081 246.06 317.031 237.1C317.031 237.1 326.741 244.81 333.711 243.32C340.681 241.83 350.631 229.38 349.631 218.19C348.631 207 342.181 207.01 338.241 208.71C336.196 209.484 334.331 210.668 332.761 212.19C332.761 212.19 338.481 205.19 332.761 195.52C331.073 192.684 328.761 190.269 326.001 188.458C323.241 186.648 320.105 185.489 316.831 185.07C316.831 185.07 313.831 169.14 304.891 163.17C295.951 157.2 264.081 151.02 251.391 178.39Z" fill="white"/>
<path d="M325.321 188.06C320.705 195.76 314.316 202.248 306.688 206.982C299.059 211.717 290.41 214.561 281.461 215.28C261.661 217.02 250.561 213.12 245.461 210.41C246.08 199.53 248.096 188.775 251.461 178.41C264.151 151.04 296.001 157.26 304.961 163.23C313.921 169.2 316.901 185.13 316.901 185.13C319.882 185.504 322.751 186.502 325.321 188.06ZM338.241 208.71C336.196 209.483 334.331 210.668 332.761 212.19C333.972 210.52 334.771 208.587 335.091 206.55C321.641 213.25 322.691 227.55 321.021 227.55C318.961 227.55 317.941 220.36 317.941 220.36C317.941 220.36 315.371 230.63 299.941 237.83C284.511 245.03 267.061 239.37 267.061 239.37C267.061 239.37 270.661 247.59 261.411 246.56C258.815 246.312 256.326 245.403 254.181 243.92C258.617 249.834 264.508 254.498 271.281 257.46C271.281 257.46 257.091 262.46 260.281 270.15C263.471 277.84 275.711 272.89 279.691 270.4C283.671 267.91 288.691 260.45 289.391 255.47C289.836 252.925 290.003 250.34 289.891 247.76C289.891 247.76 306.061 246.02 317.011 237.06C317.011 237.06 326.721 244.77 333.691 243.28C340.661 241.79 350.611 229.34 349.611 218.15C348.611 206.96 342.181 207.01 338.241 208.71Z" fill="#5048E5"/>
<path opacity="0.5" d="M325.321 188.06C320.705 195.76 314.316 202.248 306.688 206.982C299.059 211.717 290.41 214.561 281.461 215.28C261.661 217.02 250.561 213.12 245.461 210.41C246.08 199.53 248.096 188.775 251.461 178.41C264.151 151.04 296.001 157.26 304.961 163.23C313.921 169.2 316.901 185.13 316.901 185.13C319.882 185.504 322.751 186.502 325.321 188.06ZM338.241 208.71C336.196 209.483 334.331 210.668 332.761 212.19C333.972 210.52 334.771 208.587 335.091 206.55C321.641 213.25 322.691 227.55 321.021 227.55C318.961 227.55 317.941 220.36 317.941 220.36C317.941 220.36 315.371 230.63 299.941 237.83C284.511 245.03 267.061 239.37 267.061 239.37C267.061 239.37 270.661 247.59 261.411 246.56C258.815 246.312 256.326 245.403 254.181 243.92C258.617 249.834 264.508 254.498 271.281 257.46C271.281 257.46 257.091 262.46 260.281 270.15C263.471 277.84 275.711 272.89 279.691 270.4C283.671 267.91 288.691 260.45 289.391 255.47C289.836 252.925 290.003 250.34 289.891 247.76C289.891 247.76 306.061 246.02 317.011 237.06C317.011 237.06 326.721 244.77 333.691 243.28C340.661 241.79 350.611 229.34 349.611 218.15C348.611 206.96 342.181 207.01 338.241 208.71Z" fill="white"/>
<path d="M289.961 247.82C284.594 247.962 279.266 246.873 274.386 244.635C269.506 242.397 265.204 239.07 261.811 234.91" stroke="#263238" stroke-width="1.1133" stroke-linecap="round" stroke-linejoin="round"/>
<path d="M251.391 178.39C251.391 178.39 241.681 206.51 246.911 228.39C248.46 234.793 251.467 240.751 255.698 245.801C259.928 250.85 265.268 254.854 271.301 257.5C271.301 257.5 257.111 262.5 260.301 270.19C263.491 277.88 275.721 272.93 279.711 270.44C283.701 267.95 288.711 260.49 289.411 255.51C289.856 252.966 290.023 250.381 289.911 247.8C289.911 247.8 306.081 246.06 317.031 237.1C317.031 237.1 326.741 244.81 333.711 243.32C340.681 241.83 350.631 229.38 349.631 218.19C348.631 207 342.181 207.01 338.241 208.71C336.196 209.484 334.331 210.668 332.761 212.19C332.761 212.19 338.481 205.19 332.761 195.52C331.073 192.684 328.761 190.269 326.001 188.458C323.241 186.648 320.105 185.489 316.831 185.07C316.831 185.07 313.831 169.14 304.891 163.17C295.951 157.2 264.081 151.02 251.391 178.39Z" stroke="#263238" stroke-width="1.1133" stroke-linecap="round" stroke-linejoin="round"/>
<path d="M332.761 212.23C332.761 212.23 327.541 215.72 325.051 226.42" stroke="#263238" stroke-width="1.1133" stroke-linecap="round" stroke-linejoin="round"/>
<path d="M342.351 216.81C341.741 218.63 340.071 219.72 338.631 219.23C337.191 218.74 336.531 216.87 337.141 215.05C337.751 213.23 339.421 212.14 340.861 212.63C342.301 213.12 342.971 214.99 342.351 216.81Z" fill="white" stroke="#263238" stroke-width="1.1133" stroke-linecap="round" stroke-linejoin="round"/>
<path d="M347.501 220.05C346.891 221.87 345.221 222.96 343.781 222.47C342.341 221.98 341.671 220.11 342.291 218.29C342.911 216.47 344.571 215.38 346.011 215.87C347.451 216.36 348.121 218.23 347.501 220.05Z" fill="white" stroke="#263238" stroke-width="1.1133" stroke-linecap="round" stroke-linejoin="round"/>
<path d="M348.601 224.9C348.401 225.235 348.111 225.506 347.763 225.682C347.416 225.858 347.025 225.932 346.637 225.895C346.249 225.859 345.879 225.712 345.571 225.474C345.263 225.236 345.029 224.914 344.896 224.548C344.762 224.182 344.736 223.785 344.819 223.405C344.903 223.024 345.092 222.674 345.366 222.397C345.64 222.12 345.987 221.926 346.366 221.838C346.746 221.75 347.143 221.771 347.511 221.9C348.042 222.165 348.451 222.625 348.654 223.183C348.857 223.741 348.838 224.355 348.601 224.9V224.9Z" fill="white" stroke="#263238" stroke-width="1.1133" stroke-linecap="round" stroke-linejoin="round"/>
<path d="M342.031 231.56C340.231 234.81 336.631 236.25 333.981 234.78C331.331 233.31 330.651 229.5 332.451 226.25C334.251 223 337.851 221.56 340.501 223.03C343.151 224.5 343.831 228.31 342.031 231.56Z" fill="white" stroke="#263238" stroke-width="1.1133" stroke-linecap="round" stroke-linejoin="round"/>
<path d="M271.301 257.52C274.653 259.08 278.464 259.347 282.001 258.27" stroke="#263238" stroke-width="1.1133" stroke-linecap="round" stroke-linejoin="round"/>
<path d="M260.351 270.21C260.351 270.21 261.351 265.98 267.561 263" stroke="#263238" stroke-width="1.1133" stroke-linecap="round" stroke-linejoin="round"/>
<path d="M266.571 273.95C266.571 273.95 269.061 267.95 273.291 265.24" stroke="#263238" stroke-width="1.1133" stroke-linecap="round" stroke-linejoin="round"/>
<path d="M253.311 205.59C247.317 202.974 242.008 199.007 237.801 194C233.575 188.71 230.275 182.742 228.041 176.35C225.509 169.445 223.728 162.287 222.731 155C221.69 147.066 221.189 139.071 221.231 131.07C221.231 78.3567 239.231 52 275.231 52C311.231 52 329.188 78.3567 329.101 131.07C329.137 139.033 328.652 146.99 327.651 154.89C326.686 162.178 324.922 169.338 322.391 176.24C320.157 182.632 316.857 188.6 312.631 193.89C308.418 198.904 303.112 202.886 297.121 205.53C290.232 208.575 282.761 210.077 275.231 209.93C267.697 210.081 260.219 208.601 253.311 205.59V205.59ZM285.871 190.46C288.883 189.175 291.617 187.317 293.921 184.99C296.254 182.506 298.172 179.663 299.601 176.57C301.178 173.293 302.453 169.879 303.411 166.37C304.419 162.547 305.154 158.657 305.611 154.73C306.151 150.397 306.511 146.427 306.691 142.82C306.871 139.213 306.958 135.297 306.951 131.07C306.951 126.637 306.864 122.543 306.691 118.79C306.518 115.037 306.141 111.01 305.561 106.71C305.063 102.785 304.311 98.8973 303.311 95.07C302.365 91.5964 301.089 88.2211 299.501 84.99C298.061 81.9457 296.139 79.1533 293.811 76.72C291.521 74.4395 288.802 72.6348 285.811 71.41C278.974 68.7702 271.398 68.7702 264.561 71.41C261.592 72.6201 258.893 74.408 256.621 76.67C254.31 79.0927 252.393 81.863 250.941 84.88C249.339 88.0821 248.079 91.4439 247.181 94.91C246.205 98.7604 245.47 102.668 244.981 106.61C244.401 110.97 244.024 115.03 243.851 118.79C243.678 122.55 243.588 126.643 243.581 131.07C243.581 135.29 243.671 139.223 243.851 142.87C244.031 146.517 244.388 150.517 244.921 154.87C245.382 158.797 246.117 162.686 247.121 166.51C248.065 170.018 249.327 173.432 250.891 176.71C252.306 179.784 254.207 182.611 256.521 185.08C258.808 187.392 261.526 189.234 264.521 190.5C271.365 193.286 279.027 193.286 285.871 190.5V190.46Z" fill="#263238"/>
<path d="M375.082 205.59C369.088 202.974 363.78 199.007 359.572 194C355.346 188.71 352.047 182.742 349.812 176.35C347.28 169.445 345.5 162.287 344.502 155C343.462 147.066 342.96 139.071 343.002 131.07C343.002 78.3567 361.002 52 397.002 52C433.002 52 450.959 78.3567 450.872 131.07C450.908 139.033 450.424 146.99 449.422 154.89C448.457 162.178 446.694 169.338 444.162 176.24C441.928 182.632 438.628 188.6 434.402 193.89C430.19 198.904 424.884 202.886 418.892 205.53C412.004 208.575 404.533 210.077 397.002 209.93C389.468 210.081 381.991 208.601 375.082 205.59V205.59ZM407.642 190.46C410.655 189.175 413.389 187.317 415.692 184.99C418.025 182.506 419.943 179.663 421.372 176.57C422.95 173.293 424.225 169.879 425.182 166.37C426.191 162.547 426.926 158.657 427.382 154.73C427.922 150.397 428.282 146.427 428.462 142.82C428.642 139.213 428.729 135.297 428.722 131.07C428.722 126.637 428.636 122.543 428.462 118.79C428.289 115.037 427.912 111.01 427.332 106.71C426.835 102.785 426.083 98.8973 425.082 95.07C424.136 91.5964 422.86 88.2211 421.272 84.99C419.832 81.9457 417.911 79.1533 415.582 76.72C413.292 74.4395 410.573 72.6348 407.582 71.41C400.745 68.7702 393.17 68.7702 386.332 71.41C383.363 72.6201 380.665 74.408 378.392 76.67C376.081 79.0927 374.165 81.863 372.712 84.88C371.11 88.0821 369.85 91.4439 368.952 94.91C367.976 98.7604 367.241 102.668 366.752 106.61C366.172 110.97 365.796 115.03 365.622 118.79C365.449 122.55 365.359 126.643 365.352 131.07C365.352 135.29 365.442 139.223 365.622 142.87C365.802 146.517 366.159 150.517 366.692 154.87C367.154 158.797 367.889 162.686 368.892 166.51C369.836 170.018 371.098 173.432 372.662 176.71C374.077 179.784 375.978 182.611 378.292 185.08C380.579 187.392 383.297 189.234 386.292 190.5C393.136 193.286 400.798 193.286 407.642 190.5V190.46Z" fill="#263238"/>
<path d="M231.231 164.21C231.231 164.21 220.781 178.89 219.291 193.82C217.801 208.75 219.541 218.7 224.021 222.44C228.501 226.18 232.971 224.68 235.461 221.19C237.951 217.7 233.971 205.51 233.971 205.51C233.971 205.51 238.201 193.82 244.671 185.61C251.141 177.4 252.381 176.15 252.381 176.15C252.381 176.15 241.181 163.46 231.231 164.21Z" fill="white"/>
<path d="M231.231 164.21C228.951 167.579 226.928 171.116 225.181 174.79C230.181 176.79 237.931 180.89 242.851 188.15C243.451 187.28 244.071 186.42 244.711 185.61C251.181 177.4 252.421 176.15 252.421 176.15C252.421 176.15 241.181 163.46 231.231 164.21Z" fill="#5048E5"/>
<path opacity="0.5" d="M231.231 164.21C228.951 167.579 226.928 171.116 225.181 174.79C230.181 176.79 237.931 180.89 242.851 188.15C243.451 187.28 244.071 186.42 244.711 185.61C251.181 177.4 252.421 176.15 252.421 176.15C252.421 176.15 241.181 163.46 231.231 164.21Z" fill="white"/>
<path d="M231.231 164.21C231.231 164.21 220.781 178.89 219.291 193.82C217.801 208.75 219.541 218.7 224.021 222.44C228.501 226.18 232.971 224.68 235.461 221.19C237.951 217.7 233.971 205.51 233.971 205.51C233.971 205.51 238.201 193.82 244.671 185.61C251.141 177.4 252.381 176.15 252.381 176.15C252.381 176.15 241.181 163.46 231.231 164.21Z" stroke="#263238" stroke-width="1.1133" stroke-linecap="round" stroke-linejoin="round"/>
<path d="M224.021 222.44C222.799 219.177 222.205 215.713 222.271 212.23" stroke="#263238" stroke-width="1.1133" stroke-linecap="round" stroke-linejoin="round"/>
<path d="M230.731 223.93C230.731 223.93 228.251 219.7 228.001 212.48" stroke="#263238" stroke-width="1.1133" stroke-linecap="round" stroke-linejoin="round"/>
<path d="M234.471 190.83C234.471 188.21 229.471 183.09 222.521 180.83C221.587 183.266 220.815 185.762 220.211 188.3C222.911 188.762 225.533 189.6 228.001 190.79C231.731 192.82 234.471 193.82 234.471 190.83Z" fill="#5048E5" stroke="#263238" stroke-width="1.1133" stroke-linecap="round" stroke-linejoin="round"/>
<path d="M230.621 165.1C229.009 167.557 227.527 170.098 226.181 172.71C228.285 173.267 230.304 174.108 232.181 175.21C239.891 179.68 241.381 180.21 238.901 173.71C237.401 169.63 233.821 166.86 230.621 165.1Z" fill="#5048E5" stroke="#263238" stroke-width="1.1133" stroke-linecap="round" stroke-linejoin="round"/>
<path d="M313.081 156.96C313.081 156.96 324.921 170.54 327.871 185.26C330.821 199.98 330.071 210.05 325.971 214.2C321.871 218.35 317.281 217.31 314.461 214.08C311.641 210.85 314.461 198.34 314.461 198.34C314.461 198.34 309.101 187.11 301.861 179.57C294.621 172.03 293.251 170.92 293.251 170.92C293.251 170.92 303.101 157.19 313.081 156.96Z" fill="white"/>
<path d="M313.081 156.96C303.081 157.19 293.201 170.96 293.201 170.96C293.201 170.96 294.561 172.08 301.811 179.61C303.167 181.038 304.442 182.54 305.631 184.11C309.415 177.718 314.821 172.44 321.301 168.81C318.916 164.625 316.166 160.659 313.081 156.96V156.96Z" fill="#5048E5"/>
<path opacity="0.5" d="M313.081 156.96C303.081 157.19 293.201 170.96 293.201 170.96C293.201 170.96 294.561 172.08 301.811 179.61C303.167 181.038 304.442 182.54 305.631 184.11C309.415 177.718 314.821 172.44 321.301 168.81C318.916 164.625 316.166 160.659 313.081 156.96V156.96Z" fill="white"/>
<path d="M313.081 156.96C313.081 156.96 324.921 170.54 327.871 185.26C330.821 199.98 330.071 210.05 325.971 214.2C321.871 218.35 317.281 217.31 314.461 214.08C311.641 210.85 314.461 198.34 314.461 198.34C314.461 198.34 309.101 187.11 301.861 179.57C294.621 172.03 293.251 170.92 293.251 170.92C293.251 170.92 303.101 157.19 313.081 156.96Z" stroke="#263238" stroke-width="1.1133" stroke-linecap="round" stroke-linejoin="round"/>
<path d="M325.971 214.2C326.867 210.838 327.118 207.336 326.711 203.88" stroke="#263238" stroke-width="1.1133" stroke-linecap="round" stroke-linejoin="round"/>
<path d="M319.431 216.34C319.431 216.34 321.501 211.89 321.041 204.68" stroke="#263238" stroke-width="1.1133" stroke-linecap="round" stroke-linejoin="round"/>
<path d="M312.471 183.77C312.221 181.16 316.691 175.58 323.391 172.69C324.55 175.021 325.552 177.426 326.391 179.89C323.754 180.625 321.231 181.719 318.891 183.14C315.391 185.49 312.771 186.71 312.471 183.77Z" fill="#5048E5" stroke="#263238" stroke-width="1.1133" stroke-linecap="round" stroke-linejoin="round"/>
<path d="M313.771 157.79C315.61 160.059 317.326 162.426 318.911 164.88C316.864 165.638 314.929 166.671 313.161 167.95C305.931 173.17 304.491 173.81 306.331 167.13C307.481 162.96 310.761 159.85 313.771 157.79Z" fill="#5048E5" stroke="#263238" stroke-width="1.1133" stroke-linecap="round" stroke-linejoin="round"/>
<path d="M230.251 151.51C230.251 151.51 227.171 161.9 228.331 166.13C229.491 170.36 234.871 166.52 240.261 171.13C245.651 175.74 250.641 184.06 271.051 185.6C291.461 187.14 303.781 176.13 308.051 169.97C312.321 163.81 311.901 156.5 319.211 156.12C326.521 155.74 320.371 141.49 318.061 139.18C318.061 139.18 332.301 118.01 332.301 112.62C332.301 107.23 318.831 108.38 302.301 113.39C302.301 113.39 289.981 106.84 267.651 110.69C245.321 114.54 238.781 121.09 238.781 121.09C238.781 121.09 211.061 124.55 209.141 128.01C207.221 131.47 212.931 146.12 230.251 151.51Z" fill="white"/>
<path d="M319.181 156.13C326.501 155.74 320.341 141.5 318.031 139.19C318.031 139.19 320.741 135.19 323.791 130.19C315.521 125.87 307.401 123.47 305.241 125.9C300.591 131.12 303.121 141.12 305.241 150.9C307.361 160.68 298.891 164.85 292.971 173.31C287.051 181.77 278.601 172.46 278.601 172.46C275.601 184.73 262.951 176.69 262.951 176.69C253.231 173.69 236.741 164.01 240.121 157.24C243.501 150.47 244.351 144.13 238.431 138.64C232.511 133.15 208.901 128.58 208.901 128.58C207.661 132.75 213.651 146.41 230.261 151.58C230.261 151.58 227.181 161.97 228.341 166.2C229.501 170.43 234.881 166.59 240.271 171.2C245.661 175.81 250.651 184.13 271.061 185.67C291.471 187.21 303.791 176.2 308.061 170.04C312.331 163.88 311.861 156.51 319.181 156.13Z" fill="#5048E5"/>
<path opacity="0.5" d="M319.181 156.13C326.501 155.74 320.341 141.5 318.031 139.19C318.031 139.19 320.741 135.19 323.791 130.19C315.521 125.87 307.401 123.47 305.241 125.9C300.591 131.12 303.121 141.12 305.241 150.9C307.361 160.68 298.891 164.85 292.971 173.31C287.051 181.77 278.601 172.46 278.601 172.46C275.601 184.73 262.951 176.69 262.951 176.69C253.231 173.69 236.741 164.01 240.121 157.24C243.501 150.47 244.351 144.13 238.431 138.64C232.511 133.15 208.901 128.58 208.901 128.58C207.661 132.75 213.651 146.41 230.261 151.58C230.261 151.58 227.181 161.97 228.341 166.2C229.501 170.43 234.881 166.59 240.271 171.2C245.661 175.81 250.651 184.13 271.061 185.67C291.471 187.21 303.791 176.2 308.061 170.04C312.331 163.88 311.861 156.51 319.181 156.13Z" fill="white"/>
<path d="M289.071 158.45C289.361 160.89 283.941 163.52 276.991 164.33C270.041 165.14 264.161 163.82 263.871 161.33C263.581 158.84 269.001 156.27 275.961 155.46C282.921 154.65 288.791 156.02 289.071 158.45Z" fill="#5048E5"/>
<path opacity="0.5" d="M289.071 158.45C289.361 160.89 283.941 163.52 276.991 164.33C270.041 165.14 264.161 163.82 263.871 161.33C263.581 158.84 269.001 156.27 275.961 155.46C282.921 154.65 288.791 156.02 289.071 158.45Z" fill="white"/>
<path d="M230.251 151.51C230.251 151.51 227.171 161.9 228.331 166.13C229.491 170.36 234.871 166.52 240.261 171.13C245.651 175.74 250.641 184.06 271.051 185.6C291.461 187.14 303.781 176.13 308.051 169.97C312.321 163.81 311.901 156.5 319.211 156.12C326.521 155.74 320.371 141.49 318.061 139.18C318.061 139.18 332.301 118.01 332.301 112.62C332.301 107.23 318.831 108.38 302.301 113.39C302.301 113.39 289.981 106.84 267.651 110.69C245.321 114.54 238.781 121.09 238.781 121.09C238.781 121.09 211.061 124.55 209.141 128.01C207.221 131.47 212.931 146.12 230.251 151.51Z" stroke="#263238" stroke-width="1.1133" stroke-miterlimit="10"/>
<path d="M309.871 120.71C299.871 127.43 303.401 134.15 307.871 137.88C310.601 140.16 315.001 139.88 318.011 139.24C318.011 139.24 332.251 118.07 332.251 112.68C332.261 112.63 319.821 113.94 309.871 120.71Z" fill="#5048E5" stroke="#263238" stroke-width="1.1133" stroke-miterlimit="10"/>
<path d="M208.891 128.51C207.651 132.68 213.641 146.34 230.251 151.51C230.251 151.51 242.931 150.27 238.701 140.07C234.751 130.55 214.781 128.18 208.891 128.51Z" fill="#5048E5" stroke="#263238" stroke-width="1.1133" stroke-miterlimit="10"/>
<path d="M267.591 110.71C266.281 110.94 265.021 111.18 263.811 111.42C265.811 121.52 269.101 138.34 272.041 138.34C274.981 138.34 277.231 119.9 278.191 109.57C274.637 109.719 271.096 110.1 267.591 110.71V110.71Z" fill="#5048E5" stroke="#263238" stroke-width="1.1133" stroke-miterlimit="10"/>
<path d="M256.121 135.34C259.181 133.54 258.721 120.01 258.231 112.67C255.073 113.455 251.964 114.426 248.921 115.58C250.031 122.45 252.851 137.26 256.121 135.34Z" fill="#5048E5" stroke="#263238" stroke-width="1.1133" stroke-miterlimit="10"/>
<path d="M285.731 129.12C288.861 130.22 290.621 118.97 291.611 110.31C288.45 109.795 285.254 109.524 282.051 109.5C281.951 116.61 282.341 127.93 285.731 129.12Z" fill="#5048E5" stroke="#263238" stroke-width="1.1133" stroke-miterlimit="10"/>
<path d="M281.541 168.06C278.621 167.292 275.517 167.675 272.871 169.13C272.755 169.197 272.656 169.29 272.583 169.402C272.509 169.514 272.463 169.642 272.447 169.775C272.432 169.908 272.447 170.043 272.493 170.169C272.539 170.295 272.614 170.408 272.711 170.5L278.021 175.5C278.121 175.593 278.241 175.661 278.372 175.699C278.503 175.737 278.641 175.742 278.775 175.716C278.909 175.69 279.035 175.632 279.142 175.547C279.249 175.463 279.334 175.354 279.391 175.23L282.111 169.23C282.16 169.116 282.183 168.994 282.18 168.87C282.177 168.747 282.148 168.626 282.094 168.515C282.04 168.404 281.962 168.305 281.867 168.227C281.771 168.149 281.66 168.092 281.541 168.06V168.06Z" fill="#5048E5" stroke="#263238" stroke-width="1.1133" stroke-linecap="round" stroke-linejoin="round"/>
<path d="M268.921 159.71C269.651 161.64 269.361 163.54 268.271 163.95C267.181 164.36 265.701 163.14 264.961 161.22C264.221 159.3 264.521 157.39 265.611 156.98C266.701 156.57 268.181 157.79 268.921 159.71Z" fill="#263238"/>
<path d="M283.401 158.34C283.021 160.34 283.641 162.19 284.791 162.4C285.941 162.61 287.181 161.15 287.561 159.12C287.941 157.09 287.321 155.28 286.171 155.06C285.021 154.84 283.781 156.32 283.401 158.34Z" fill="#263238"/>
<path d="M279.391 175.22C279.391 175.22 272.291 184.86 265.821 175.16" stroke="#263238" stroke-width="1.1133" stroke-linecap="round" stroke-linejoin="round"/>
<path d="M278.021 175.49C278.021 175.49 282.741 180.38 287.721 177.64C292.701 174.9 289.721 170.64 289.721 170.64" stroke="#263238" stroke-width="1.1133" stroke-linecap="round" stroke-linejoin="round"/>
<path d="M256.371 152.01C256.371 152.01 258.111 145.79 266.321 147.28" stroke="#263238" stroke-width="3.33991" stroke-linecap="round" stroke-linejoin="round"/>
<path d="M281.251 146.29C281.251 146.29 287.471 142.56 293.191 148.53" stroke="#263238" stroke-width="3.33991" stroke-linecap="round" stroke-linejoin="round"/>
<path d="M251.641 168.69L257.611 170.18" stroke="#263238" stroke-width="1.1133" stroke-miterlimit="10" stroke-linecap="round"/>
<path d="M256.861 172.42L251.641 173.41" stroke="#263238" stroke-width="1.1133" stroke-miterlimit="10" stroke-linecap="round"/>
<path d="M257.861 175.16L254.131 177.15" stroke="#263238" stroke-width="1.1133" stroke-miterlimit="10" stroke-linecap="round"/>
<path d="M295.681 165.95L300.911 164.7" stroke="#263238" stroke-width="1.1133" stroke-miterlimit="10" stroke-linecap="round"/>
<path d="M296.681 168.44H300.161" stroke="#263238" stroke-width="1.1133" stroke-miterlimit="10" stroke-linecap="round"/>
<path d="M297.421 170.93L302.151 172.17" stroke="#263238" stroke-width="1.1133" stroke-miterlimit="10" stroke-linecap="round"/>
<path d="M151.957 216.168C142.874 216.168 134.694 214.361 127.417 210.749C120.14 207.136 114.308 202.181 109.921 195.885C105.534 189.589 103.134 182.415 102.722 174.364H121.301C122.024 181.537 125.275 187.473 131.055 192.169C136.887 196.814 143.855 199.136 151.957 199.136C158.46 199.136 164.241 197.614 169.298 194.569C174.408 191.524 178.407 187.344 181.298 182.028C184.239 176.66 185.71 170.596 185.71 163.835C185.71 156.92 184.188 150.752 181.143 145.333C178.149 139.862 174.021 135.553 168.756 132.405C163.492 129.257 157.48 127.657 150.719 127.605C145.867 127.554 140.887 128.302 135.778 129.85C130.668 131.347 126.462 133.282 123.159 135.656L105.199 133.489L114.798 55.4545H197.168V72.4858H130.901L125.327 119.244H126.256C129.507 116.664 133.584 114.522 138.487 112.819C143.39 111.116 148.5 110.264 153.815 110.264C163.518 110.264 172.163 112.587 179.749 117.232C187.388 121.825 193.374 128.121 197.71 136.121C202.096 144.12 204.29 153.255 204.29 163.526C204.29 173.641 202.019 182.673 197.477 190.621C192.987 198.517 186.794 204.762 178.898 209.355C171.001 213.897 162.021 216.168 151.957 216.168Z" fill="#263238"/>
<path d="M75.0938 314.324V317.783C75.0938 319.187 74.9388 320.422 74.6289 321.488C74.3281 322.546 73.8861 323.43 73.3027 324.141C72.7194 324.852 72.0176 325.385 71.1973 325.74C70.377 326.096 69.4518 326.273 68.4219 326.273C67.4284 326.273 66.5215 326.096 65.7012 325.74C64.8809 325.385 64.1745 324.852 63.582 324.141C62.9896 323.43 62.5293 322.546 62.2012 321.488C61.8822 320.422 61.7227 319.187 61.7227 317.783V314.324C61.7227 312.921 61.8822 311.69 62.2012 310.633C62.5202 309.566 62.9759 308.678 63.5684 307.967C64.1608 307.256 64.8672 306.723 65.6875 306.367C66.5078 306.003 67.4147 305.82 68.4082 305.82C69.4382 305.82 70.3633 306.003 71.1836 306.367C72.013 306.723 72.7148 307.256 73.2891 307.967C73.8724 308.678 74.319 309.566 74.6289 310.633C74.9388 311.69 75.0938 312.921 75.0938 314.324ZM72.6055 317.783V314.297C72.6055 313.203 72.5143 312.264 72.332 311.48C72.1497 310.688 71.8809 310.04 71.5254 309.539C71.1699 309.038 70.7324 308.669 70.2129 308.432C69.6934 308.186 69.0918 308.062 68.4082 308.062C67.7611 308.062 67.1777 308.186 66.6582 308.432C66.1478 308.669 65.7103 309.038 65.3457 309.539C64.9811 310.04 64.6986 310.688 64.498 311.48C64.3066 312.264 64.2109 313.203 64.2109 314.297V317.783C64.2109 318.886 64.3066 319.834 64.498 320.627C64.6986 321.411 64.9811 322.058 65.3457 322.568C65.7194 323.07 66.166 323.443 66.6855 323.689C67.2051 323.926 67.7839 324.045 68.4219 324.045C69.1055 324.045 69.707 323.926 70.2266 323.689C70.7552 323.443 71.1927 323.07 71.5391 322.568C71.8945 322.058 72.1589 321.411 72.332 320.627C72.5143 319.834 72.6055 318.886 72.6055 317.783ZM78.1562 319.314V317.906C78.1562 316.758 78.3021 315.751 78.5938 314.885C78.8854 314.01 79.291 313.281 79.8105 312.697C80.3301 312.114 80.9362 311.676 81.6289 311.385C82.3216 311.084 83.0645 310.934 83.8574 310.934C84.6686 310.934 85.4206 311.084 86.1133 311.385C86.806 311.676 87.4121 312.114 87.9316 312.697C88.4603 313.281 88.8704 314.01 89.1621 314.885C89.4538 315.751 89.5996 316.758 89.5996 317.906V319.314C89.5996 320.463 89.4538 321.475 89.1621 322.35C88.8704 323.215 88.4648 323.94 87.9453 324.523C87.4258 325.107 86.8197 325.544 86.127 325.836C85.4342 326.128 84.6868 326.273 83.8848 326.273C83.0827 326.273 82.3353 326.128 81.6426 325.836C80.9499 325.544 80.3392 325.107 79.8105 324.523C79.291 323.94 78.8854 323.215 78.5938 322.35C78.3021 321.475 78.1562 320.463 78.1562 319.314ZM80.5762 317.906V319.314C80.5762 320.126 80.6582 320.837 80.8223 321.447C80.9863 322.058 81.2188 322.568 81.5195 322.979C81.8203 323.389 82.1712 323.699 82.5723 323.908C82.9733 324.109 83.4108 324.209 83.8848 324.209C84.4316 324.209 84.9102 324.109 85.3203 323.908C85.7396 323.699 86.0859 323.389 86.3594 322.979C86.6328 322.568 86.8379 322.058 86.9746 321.447C87.1113 320.837 87.1797 320.126 87.1797 319.314V317.906C87.1797 317.095 87.0977 316.389 86.9336 315.787C86.7695 315.176 86.5371 314.666 86.2363 314.256C85.9355 313.837 85.5801 313.527 85.1699 313.326C84.7689 313.117 84.3314 313.012 83.8574 313.012C83.3926 313.012 82.9596 313.117 82.5586 313.326C82.1576 313.527 81.8066 313.837 81.5059 314.256C81.2142 314.666 80.9863 315.176 80.8223 315.787C80.6582 316.389 80.5762 317.095 80.5762 317.906ZM95.1367 314.051V331.688H92.7168V311.207H94.918L95.1367 314.051ZM103.408 317.934V319.314C103.408 320.481 103.299 321.502 103.08 322.377C102.87 323.243 102.556 323.967 102.137 324.551C101.727 325.125 101.221 325.558 100.619 325.85C100.018 326.132 99.3294 326.273 98.5547 326.273C97.7799 326.273 97.1055 326.128 96.5312 325.836C95.9661 325.535 95.4876 325.102 95.0957 324.537C94.7129 323.972 94.4076 323.293 94.1797 322.5C93.9609 321.698 93.8105 320.8 93.7285 319.807V317.701C93.8105 316.653 93.9609 315.714 94.1797 314.885C94.3984 314.046 94.6992 313.335 95.082 312.752C95.474 312.16 95.9525 311.708 96.5176 311.398C97.0918 311.089 97.7617 310.934 98.5273 310.934C99.3203 310.934 100.018 311.07 100.619 311.344C101.23 311.617 101.74 312.041 102.15 312.615C102.57 313.18 102.884 313.905 103.094 314.789C103.303 315.664 103.408 316.712 103.408 317.934ZM100.988 319.314V317.934C100.988 317.113 100.924 316.398 100.797 315.787C100.678 315.176 100.487 314.671 100.223 314.27C99.9583 313.868 99.6257 313.568 99.2246 313.367C98.8236 313.167 98.3405 313.066 97.7754 313.066C97.2923 313.066 96.8639 313.167 96.4902 313.367C96.1257 313.568 95.8112 313.841 95.5469 314.188C95.2826 314.525 95.0638 314.912 94.8906 315.35C94.7174 315.778 94.5898 316.225 94.5078 316.689V320.832C94.6628 321.415 94.8678 321.967 95.123 322.486C95.3783 322.997 95.7201 323.411 96.1484 323.73C96.5859 324.049 97.1374 324.209 97.8027 324.209C98.3587 324.209 98.8372 324.109 99.2383 323.908C99.6393 323.708 99.9674 323.407 100.223 323.006C100.487 322.596 100.678 322.085 100.797 321.475C100.924 320.855 100.988 320.135 100.988 319.314ZM113.703 322.213C113.703 321.839 113.612 321.511 113.43 321.229C113.247 320.946 112.947 320.673 112.527 320.408C112.117 320.144 111.561 319.861 110.859 319.561C110.176 319.278 109.561 319 109.014 318.727C108.476 318.444 108.02 318.139 107.646 317.811C107.273 317.482 106.986 317.104 106.785 316.676C106.594 316.238 106.498 315.723 106.498 315.131C106.498 314.538 106.607 313.992 106.826 313.49C107.054 312.98 107.373 312.533 107.783 312.15C108.193 311.768 108.686 311.471 109.26 311.262C109.834 311.043 110.477 310.934 111.188 310.934C112.199 310.934 113.061 311.13 113.771 311.521C114.482 311.913 115.025 312.451 115.398 313.135C115.781 313.809 115.973 314.57 115.973 315.418H113.566C113.566 315.008 113.475 314.62 113.293 314.256C113.111 313.891 112.842 313.595 112.486 313.367C112.131 313.13 111.698 313.012 111.188 313.012C110.65 313.012 110.212 313.107 109.875 313.299C109.538 313.49 109.292 313.741 109.137 314.051C108.991 314.352 108.918 314.684 108.918 315.049C108.918 315.322 108.954 315.559 109.027 315.76C109.109 315.951 109.246 316.133 109.438 316.307C109.629 316.471 109.889 316.644 110.217 316.826C110.554 316.999 110.982 317.2 111.502 317.428C112.505 317.82 113.348 318.216 114.031 318.617C114.715 319.018 115.234 319.488 115.59 320.025C115.945 320.563 116.123 321.229 116.123 322.021C116.123 322.669 116.005 323.257 115.768 323.785C115.54 324.305 115.212 324.751 114.783 325.125C114.355 325.499 113.84 325.786 113.238 325.986C112.646 326.178 111.98 326.273 111.242 326.273C110.13 326.273 109.187 326.055 108.412 325.617C107.646 325.171 107.063 324.592 106.662 323.881C106.27 323.161 106.074 322.391 106.074 321.57H108.494C108.521 322.263 108.676 322.801 108.959 323.184C109.251 323.566 109.602 323.831 110.012 323.977C110.422 324.122 110.832 324.195 111.242 324.195C111.78 324.195 112.231 324.118 112.596 323.963C112.96 323.799 113.234 323.566 113.416 323.266C113.607 322.965 113.703 322.614 113.703 322.213ZM119.445 324.66C119.445 324.232 119.577 323.872 119.842 323.58C120.115 323.279 120.507 323.129 121.018 323.129C121.528 323.129 121.915 323.279 122.18 323.58C122.453 323.872 122.59 324.232 122.59 324.66C122.59 325.079 122.453 325.435 122.18 325.727C121.915 326.018 121.528 326.164 121.018 326.164C120.507 326.164 120.115 326.018 119.842 325.727C119.577 325.435 119.445 325.079 119.445 324.66ZM126.828 324.66C126.828 324.232 126.96 323.872 127.225 323.58C127.498 323.279 127.89 323.129 128.4 323.129C128.911 323.129 129.298 323.279 129.562 323.58C129.836 323.872 129.973 324.232 129.973 324.66C129.973 325.079 129.836 325.435 129.562 325.727C129.298 326.018 128.911 326.164 128.4 326.164C127.89 326.164 127.498 326.018 127.225 325.727C126.96 325.435 126.828 325.079 126.828 324.66ZM64.7715 339.094V359H62.2559V339.094H64.7715ZM71.2383 347.365V359H68.8184V344.207H71.1016L71.2383 347.365ZM70.6504 351.043L69.666 351.002C69.6569 349.99 69.7708 349.056 70.0078 348.199C70.2539 347.333 70.6003 346.581 71.0469 345.943C71.5026 345.305 72.0449 344.813 72.6738 344.467C73.3027 344.111 74 343.934 74.7656 343.934C75.3672 343.934 75.9141 344.034 76.4062 344.234C76.8984 344.426 77.3177 344.736 77.6641 345.164C78.0104 345.592 78.2747 346.148 78.457 346.832C78.6484 347.507 78.7441 348.331 78.7441 349.307V359H76.3242V349.279C76.3242 348.505 76.2376 347.885 76.0645 347.42C75.9004 346.946 75.6452 346.604 75.2988 346.395C74.9616 346.176 74.5332 346.066 74.0137 346.066C73.5397 346.066 73.0977 346.199 72.6875 346.463C72.2773 346.727 71.9173 347.092 71.6074 347.557C71.3066 348.021 71.0697 348.555 70.8965 349.156C70.7324 349.749 70.6504 350.378 70.6504 351.043ZM87.7812 344.207V346.148H80.877V344.207H87.7812ZM83.1328 340.611H85.5527V355.336C85.5527 355.837 85.612 356.215 85.7305 356.471C85.8581 356.726 86.0176 356.895 86.209 356.977C86.4004 357.059 86.6055 357.1 86.8242 357.1C86.9883 357.1 87.1706 357.081 87.3711 357.045C87.5716 356.999 87.7083 356.963 87.7812 356.936L87.7676 359C87.6035 359.064 87.3848 359.123 87.1113 359.178C86.8379 359.242 86.4915 359.273 86.0723 359.273C85.5527 359.273 85.0697 359.15 84.623 358.904C84.1764 358.658 83.8164 358.248 83.543 357.674C83.2695 357.09 83.1328 356.307 83.1328 355.322V340.611ZM95.957 359.273C95.0729 359.273 94.2754 359.141 93.5645 358.877C92.8535 358.613 92.2474 358.212 91.7461 357.674C91.2448 357.127 90.862 356.439 90.5977 355.609C90.3333 354.78 90.2012 353.8 90.2012 352.67V351.002C90.2012 349.699 90.3516 348.596 90.6523 347.693C90.9622 346.791 91.377 346.066 91.8965 345.52C92.416 344.964 93.0039 344.562 93.6602 344.316C94.3164 344.061 94.9909 343.934 95.6836 343.934C96.6133 343.934 97.4062 344.084 98.0625 344.385C98.7188 344.686 99.252 345.132 99.6621 345.725C100.072 346.317 100.373 347.046 100.564 347.912C100.765 348.778 100.865 349.776 100.865 350.906V352.314H91.623V350.25H98.4453V349.908C98.4089 349.143 98.304 348.468 98.1309 347.885C97.9668 347.301 97.6934 346.846 97.3105 346.518C96.9277 346.18 96.3854 346.012 95.6836 346.012C95.237 346.012 94.8223 346.089 94.4395 346.244C94.0658 346.39 93.7422 346.65 93.4688 347.023C93.2044 347.388 92.9948 347.894 92.8398 348.541C92.694 349.188 92.6211 350.008 92.6211 351.002V352.67C92.6211 353.463 92.694 354.146 92.8398 354.721C92.9948 355.286 93.2181 355.755 93.5098 356.129C93.8105 356.493 94.1751 356.767 94.6035 356.949C95.041 357.122 95.5378 357.209 96.0938 357.209C96.9049 357.209 97.5749 357.054 98.1035 356.744C98.6322 356.425 99.0924 356.02 99.4844 355.527L100.756 357.045C100.492 357.419 100.145 357.779 99.7168 358.125C99.2975 358.462 98.778 358.74 98.1582 358.959C97.5475 359.169 96.8138 359.273 95.957 359.273ZM106.211 346.531V359H103.791V344.207H106.129L106.211 346.531ZM109.889 344.125L109.902 346.477C109.702 346.431 109.52 346.404 109.355 346.395C109.201 346.376 109.018 346.367 108.809 346.367C108.353 346.367 107.952 346.458 107.605 346.641C107.268 346.823 106.977 347.078 106.73 347.406C106.484 347.734 106.288 348.126 106.143 348.582C105.997 349.029 105.896 349.521 105.842 350.059L105.213 350.469C105.213 349.576 105.281 348.737 105.418 347.953C105.564 347.169 105.787 346.477 106.088 345.875C106.389 345.264 106.771 344.79 107.236 344.453C107.71 344.107 108.275 343.934 108.932 343.934C109.077 343.934 109.255 343.956 109.465 344.002C109.684 344.038 109.825 344.079 109.889 344.125ZM114.742 347.365V359H112.322V344.207H114.605L114.742 347.365ZM114.154 351.043L113.17 351.002C113.161 349.99 113.275 349.056 113.512 348.199C113.758 347.333 114.104 346.581 114.551 345.943C115.007 345.305 115.549 344.813 116.178 344.467C116.807 344.111 117.504 343.934 118.27 343.934C118.871 343.934 119.418 344.034 119.91 344.234C120.402 344.426 120.822 344.736 121.168 345.164C121.514 345.592 121.779 346.148 121.961 346.832C122.152 347.507 122.248 348.331 122.248 349.307V359H119.828V349.279C119.828 348.505 119.742 347.885 119.568 347.42C119.404 346.946 119.149 346.604 118.803 346.395C118.465 346.176 118.037 346.066 117.518 346.066C117.044 346.066 116.602 346.199 116.191 346.463C115.781 346.727 115.421 347.092 115.111 347.557C114.811 348.021 114.574 348.555 114.4 349.156C114.236 349.749 114.154 350.378 114.154 351.043ZM133.131 356.471V348.445C133.131 347.862 133.04 347.393 132.857 347.037C132.684 346.682 132.42 346.422 132.064 346.258C131.718 346.094 131.281 346.012 130.752 346.012C130.242 346.012 129.799 346.117 129.426 346.326C129.061 346.536 128.779 346.814 128.578 347.16C128.387 347.507 128.291 347.889 128.291 348.309H125.871C125.871 347.78 125.985 347.256 126.213 346.736C126.45 346.217 126.787 345.747 127.225 345.328C127.662 344.9 128.186 344.562 128.797 344.316C129.417 344.061 130.109 343.934 130.875 343.934C131.786 343.934 132.593 344.084 133.295 344.385C133.997 344.676 134.548 345.155 134.949 345.82C135.35 346.486 135.551 347.37 135.551 348.473V355.773C135.551 356.266 135.587 356.79 135.66 357.346C135.742 357.902 135.856 358.38 136.002 358.781V359H133.5C133.382 358.708 133.29 358.321 133.227 357.838C133.163 357.346 133.131 356.89 133.131 356.471ZM133.514 350.031L133.541 351.809H131.859C131.285 351.809 130.761 351.872 130.287 352C129.822 352.128 129.421 352.314 129.084 352.561C128.747 352.798 128.487 353.094 128.305 353.449C128.132 353.805 128.045 354.21 128.045 354.666C128.045 355.258 128.127 355.732 128.291 356.088C128.455 356.434 128.701 356.685 129.029 356.84C129.357 356.995 129.772 357.072 130.273 357.072C130.884 357.072 131.422 356.931 131.887 356.648C132.352 356.366 132.712 356.024 132.967 355.623C133.231 355.222 133.354 354.848 133.336 354.502L133.869 355.637C133.833 355.992 133.714 356.38 133.514 356.799C133.322 357.209 133.053 357.605 132.707 357.988C132.361 358.362 131.951 358.672 131.477 358.918C131.012 359.155 130.488 359.273 129.904 359.273C129.048 359.273 128.296 359.109 127.648 358.781C127.01 358.453 126.514 357.97 126.158 357.332C125.803 356.694 125.625 355.906 125.625 354.967C125.625 354.256 125.748 353.6 125.994 352.998C126.24 352.396 126.605 351.877 127.088 351.439C127.571 350.993 128.177 350.646 128.906 350.4C129.645 350.154 130.497 350.031 131.463 350.031H133.514ZM141.908 338V359H139.502V338H141.908ZM161.199 353.969C161.199 353.504 161.145 353.094 161.035 352.738C160.926 352.374 160.734 352.046 160.461 351.754C160.188 351.462 159.805 351.184 159.312 350.92C158.82 350.656 158.196 350.387 157.439 350.113C156.619 349.822 155.876 349.498 155.211 349.143C154.546 348.778 153.976 348.363 153.502 347.898C153.037 347.434 152.677 346.9 152.422 346.299C152.167 345.697 152.039 345.009 152.039 344.234C152.039 343.46 152.171 342.744 152.436 342.088C152.709 341.432 153.092 340.862 153.584 340.379C154.085 339.887 154.687 339.504 155.389 339.23C156.09 338.957 156.874 338.82 157.74 338.82C159.035 338.82 160.124 339.107 161.008 339.682C161.901 340.247 162.576 340.99 163.031 341.91C163.487 342.822 163.715 343.797 163.715 344.836H161.199C161.199 344.089 161.076 343.428 160.83 342.854C160.593 342.27 160.219 341.814 159.709 341.486C159.208 341.149 158.551 340.98 157.74 340.98C157.011 340.98 156.41 341.122 155.936 341.404C155.471 341.687 155.124 342.07 154.896 342.553C154.678 343.036 154.568 343.587 154.568 344.207C154.568 344.626 154.641 345.009 154.787 345.355C154.933 345.693 155.156 346.007 155.457 346.299C155.767 346.59 156.15 346.859 156.605 347.105C157.07 347.352 157.617 347.589 158.246 347.816C159.221 348.135 160.055 348.491 160.748 348.883C161.441 349.275 162.006 349.717 162.443 350.209C162.881 350.692 163.2 351.243 163.4 351.863C163.61 352.474 163.715 353.167 163.715 353.941C163.715 354.753 163.578 355.486 163.305 356.143C163.04 356.799 162.653 357.359 162.143 357.824C161.632 358.289 161.017 358.649 160.297 358.904C159.577 359.15 158.766 359.273 157.863 359.273C157.079 359.273 156.309 359.146 155.553 358.891C154.805 358.635 154.126 358.253 153.516 357.742C152.905 357.232 152.417 356.603 152.053 355.855C151.688 355.099 151.506 354.224 151.506 353.23H154.021C154.021 353.914 154.122 354.502 154.322 354.994C154.523 355.477 154.801 355.878 155.156 356.197C155.512 356.516 155.917 356.753 156.373 356.908C156.838 357.054 157.335 357.127 157.863 357.127C158.592 357.127 159.203 356.999 159.695 356.744C160.197 356.489 160.57 356.124 160.816 355.65C161.072 355.176 161.199 354.616 161.199 353.969ZM171.973 359.273C171.089 359.273 170.291 359.141 169.58 358.877C168.869 358.613 168.263 358.212 167.762 357.674C167.26 357.127 166.878 356.439 166.613 355.609C166.349 354.78 166.217 353.8 166.217 352.67V351.002C166.217 349.699 166.367 348.596 166.668 347.693C166.978 346.791 167.393 346.066 167.912 345.52C168.432 344.964 169.02 344.562 169.676 344.316C170.332 344.061 171.007 343.934 171.699 343.934C172.629 343.934 173.422 344.084 174.078 344.385C174.734 344.686 175.268 345.132 175.678 345.725C176.088 346.317 176.389 347.046 176.58 347.912C176.781 348.778 176.881 349.776 176.881 350.906V352.314H167.639V350.25H174.461V349.908C174.424 349.143 174.32 348.468 174.146 347.885C173.982 347.301 173.709 346.846 173.326 346.518C172.943 346.18 172.401 346.012 171.699 346.012C171.253 346.012 170.838 346.089 170.455 346.244C170.081 346.39 169.758 346.65 169.484 347.023C169.22 347.388 169.01 347.894 168.855 348.541C168.71 349.188 168.637 350.008 168.637 351.002V352.67C168.637 353.463 168.71 354.146 168.855 354.721C169.01 355.286 169.234 355.755 169.525 356.129C169.826 356.493 170.191 356.767 170.619 356.949C171.057 357.122 171.553 357.209 172.109 357.209C172.921 357.209 173.59 357.054 174.119 356.744C174.648 356.425 175.108 356.02 175.5 355.527L176.771 357.045C176.507 357.419 176.161 357.779 175.732 358.125C175.313 358.462 174.794 358.74 174.174 358.959C173.563 359.169 172.829 359.273 171.973 359.273ZM182.227 346.531V359H179.807V344.207H182.145L182.227 346.531ZM185.904 344.125L185.918 346.477C185.717 346.431 185.535 346.404 185.371 346.395C185.216 346.376 185.034 346.367 184.824 346.367C184.368 346.367 183.967 346.458 183.621 346.641C183.284 346.823 182.992 347.078 182.746 347.406C182.5 347.734 182.304 348.126 182.158 348.582C182.012 349.029 181.912 349.521 181.857 350.059L181.229 350.469C181.229 349.576 181.297 348.737 181.434 347.953C181.579 347.169 181.803 346.477 182.104 345.875C182.404 345.264 182.787 344.79 183.252 344.453C183.726 344.107 184.291 343.934 184.947 343.934C185.093 343.934 185.271 343.956 185.48 344.002C185.699 344.038 185.84 344.079 185.904 344.125ZM192.412 356.717L195.584 344.207H198.045L193.656 359H192.057L192.412 356.717ZM189.855 344.207L193.164 356.785L193.424 359H191.838L187.395 344.207H189.855ZM205.66 359.273C204.776 359.273 203.979 359.141 203.268 358.877C202.557 358.613 201.951 358.212 201.449 357.674C200.948 357.127 200.565 356.439 200.301 355.609C200.036 354.78 199.904 353.8 199.904 352.67V351.002C199.904 349.699 200.055 348.596 200.355 347.693C200.665 346.791 201.08 346.066 201.6 345.52C202.119 344.964 202.707 344.562 203.363 344.316C204.02 344.061 204.694 343.934 205.387 343.934C206.316 343.934 207.109 344.084 207.766 344.385C208.422 344.686 208.955 345.132 209.365 345.725C209.775 346.317 210.076 347.046 210.268 347.912C210.468 348.778 210.568 349.776 210.568 350.906V352.314H201.326V350.25H208.148V349.908C208.112 349.143 208.007 348.468 207.834 347.885C207.67 347.301 207.396 346.846 207.014 346.518C206.631 346.18 206.089 346.012 205.387 346.012C204.94 346.012 204.525 346.089 204.143 346.244C203.769 346.39 203.445 346.65 203.172 347.023C202.908 347.388 202.698 347.894 202.543 348.541C202.397 349.188 202.324 350.008 202.324 351.002V352.67C202.324 353.463 202.397 354.146 202.543 354.721C202.698 355.286 202.921 355.755 203.213 356.129C203.514 356.493 203.878 356.767 204.307 356.949C204.744 357.122 205.241 357.209 205.797 357.209C206.608 357.209 207.278 357.054 207.807 356.744C208.335 356.425 208.796 356.02 209.188 355.527L210.459 357.045C210.195 357.419 209.848 357.779 209.42 358.125C209.001 358.462 208.481 358.74 207.861 358.959C207.251 359.169 206.517 359.273 205.66 359.273ZM215.914 346.531V359H213.494V344.207H215.832L215.914 346.531ZM219.592 344.125L219.605 346.477C219.405 346.431 219.223 346.404 219.059 346.395C218.904 346.376 218.721 346.367 218.512 346.367C218.056 346.367 217.655 346.458 217.309 346.641C216.971 346.823 216.68 347.078 216.434 347.406C216.188 347.734 215.992 348.126 215.846 348.582C215.7 349.029 215.6 349.521 215.545 350.059L214.916 350.469C214.916 349.576 214.984 348.737 215.121 347.953C215.267 347.169 215.49 346.477 215.791 345.875C216.092 345.264 216.475 344.79 216.939 344.453C217.413 344.107 217.979 343.934 218.635 343.934C218.781 343.934 218.958 343.956 219.168 344.002C219.387 344.038 219.528 344.079 219.592 344.125ZM239.484 356.854V359H230.844V356.854H239.484ZM231.295 339.094V359H228.779V339.094H231.295ZM238.322 347.652V349.799H230.844V347.652H238.322ZM239.348 339.094V341.254H230.844V339.094H239.348ZM244.789 346.531V359H242.369V344.207H244.707L244.789 346.531ZM248.467 344.125L248.48 346.477C248.28 346.431 248.098 346.404 247.934 346.395C247.779 346.376 247.596 346.367 247.387 346.367C246.931 346.367 246.53 346.458 246.184 346.641C245.846 346.823 245.555 347.078 245.309 347.406C245.062 347.734 244.867 348.126 244.721 348.582C244.575 349.029 244.475 349.521 244.42 350.059L243.791 350.469C243.791 349.576 243.859 348.737 243.996 347.953C244.142 347.169 244.365 346.477 244.666 345.875C244.967 345.264 245.35 344.79 245.814 344.453C246.288 344.107 246.854 343.934 247.51 343.934C247.656 343.934 247.833 343.956 248.043 344.002C248.262 344.038 248.403 344.079 248.467 344.125ZM253.32 346.531V359H250.9V344.207H253.238L253.32 346.531ZM256.998 344.125L257.012 346.477C256.811 346.431 256.629 346.404 256.465 346.395C256.31 346.376 256.128 346.367 255.918 346.367C255.462 346.367 255.061 346.458 254.715 346.641C254.378 346.823 254.086 347.078 253.84 347.406C253.594 347.734 253.398 348.126 253.252 348.582C253.106 349.029 253.006 349.521 252.951 350.059L252.322 350.469C252.322 349.576 252.391 348.737 252.527 347.953C252.673 347.169 252.896 346.477 253.197 345.875C253.498 345.264 253.881 344.79 254.346 344.453C254.82 344.107 255.385 343.934 256.041 343.934C256.187 343.934 256.365 343.956 256.574 344.002C256.793 344.038 256.934 344.079 256.998 344.125ZM258.652 352.314V350.906C258.652 349.758 258.798 348.751 259.09 347.885C259.382 347.01 259.787 346.281 260.307 345.697C260.826 345.114 261.432 344.676 262.125 344.385C262.818 344.084 263.561 343.934 264.354 343.934C265.165 343.934 265.917 344.084 266.609 344.385C267.302 344.676 267.908 345.114 268.428 345.697C268.956 346.281 269.367 347.01 269.658 347.885C269.95 348.751 270.096 349.758 270.096 350.906V352.314C270.096 353.463 269.95 354.475 269.658 355.35C269.367 356.215 268.961 356.94 268.441 357.523C267.922 358.107 267.316 358.544 266.623 358.836C265.93 359.128 265.183 359.273 264.381 359.273C263.579 359.273 262.831 359.128 262.139 358.836C261.446 358.544 260.835 358.107 260.307 357.523C259.787 356.94 259.382 356.215 259.09 355.35C258.798 354.475 258.652 353.463 258.652 352.314ZM261.072 350.906V352.314C261.072 353.126 261.154 353.837 261.318 354.447C261.482 355.058 261.715 355.568 262.016 355.979C262.316 356.389 262.667 356.699 263.068 356.908C263.469 357.109 263.907 357.209 264.381 357.209C264.928 357.209 265.406 357.109 265.816 356.908C266.236 356.699 266.582 356.389 266.855 355.979C267.129 355.568 267.334 355.058 267.471 354.447C267.607 353.837 267.676 353.126 267.676 352.314V350.906C267.676 350.095 267.594 349.389 267.43 348.787C267.266 348.176 267.033 347.666 266.732 347.256C266.432 346.837 266.076 346.527 265.666 346.326C265.265 346.117 264.827 346.012 264.354 346.012C263.889 346.012 263.456 346.117 263.055 346.326C262.654 346.527 262.303 346.837 262.002 347.256C261.71 347.666 261.482 348.176 261.318 348.787C261.154 349.389 261.072 350.095 261.072 350.906ZM275.633 346.531V359H273.213V344.207H275.551L275.633 346.531ZM279.311 344.125L279.324 346.477C279.124 346.431 278.941 346.404 278.777 346.395C278.622 346.376 278.44 346.367 278.23 346.367C277.775 346.367 277.374 346.458 277.027 346.641C276.69 346.823 276.398 347.078 276.152 347.406C275.906 347.734 275.71 348.126 275.564 348.582C275.419 349.029 275.318 349.521 275.264 350.059L274.635 350.469C274.635 349.576 274.703 348.737 274.84 347.953C274.986 347.169 275.209 346.477 275.51 345.875C275.811 345.264 276.193 344.79 276.658 344.453C277.132 344.107 277.697 343.934 278.354 343.934C278.499 343.934 278.677 343.956 278.887 344.002C279.105 344.038 279.247 344.079 279.311 344.125Z" fill="black"/>
</svg>
