<svg fill="currentColor" xmlns="http://www.w3.org/2000/svg">
	<path fill-rule="evenodd" clip-rule="evenodd" d="M246 96C163.157 96 96 163.157 96 246V458C96 540.843 163.157 608 246 608H416V778C416 860.843 483.157 928 566 928H778C860.843 928 928 860.843 928 778V566C928 483.157 860.843 416 778 416H608V246C608 163.157 540.843 96 458 96H246ZM608 416H566C483.157 416 416 483.157 416 566V608H458C540.843 608 608 540.843 608 458V416ZM753 178C753 164.193 764.193 153 778 153H846C859.807 153 871 164.193 871 178V251C871 264.807 859.807 276 846 276H778C764.193 276 753 264.807 753 251V178ZM180 747C166.193 747 155 758.193 155 772V845C155 858.807 166.193 870 180 870H248C261.807 870 273 858.807 273 845V772C273 758.193 261.807 747 248 747H180Z" fill="#5D5FEF" />
</svg>
